%TF.GenerationSoftware,KiCad,Pcbnew,8.0.3*%
%TF.CreationDate,2024-12-22T12:47:46-05:00*%
%TF.ProjectId,klipper_screen_riser,6b6c6970-7065-4725-9f73-637265656e5f,rev?*%
%TF.SameCoordinates,Original*%
%TF.FileFunction,Legend,Top*%
%TF.FilePolarity,Positive*%
%FSLAX46Y46*%
G04 Gerber Fmt 4.6, Leading zero omitted, Abs format (unit mm)*
G04 Created by KiCad (PCBNEW 8.0.3) date 2024-12-22 12:47:46*
%MOMM*%
%LPD*%
G01*
G04 APERTURE LIST*
%ADD10C,0.150000*%
%ADD11C,0.100000*%
%ADD12C,0.152400*%
%ADD13C,0.120000*%
G04 APERTURE END LIST*
D10*
X155820001Y-84138453D02*
X155820001Y-83238453D01*
X156334287Y-84138453D02*
X155948573Y-83624167D01*
X156334287Y-83238453D02*
X155820001Y-83752738D01*
X156848573Y-84138453D02*
X156762858Y-84095596D01*
X156762858Y-84095596D02*
X156720001Y-84009881D01*
X156720001Y-84009881D02*
X156720001Y-83238453D01*
X157191430Y-84138453D02*
X157191430Y-83538453D01*
X157191430Y-83238453D02*
X157148573Y-83281310D01*
X157148573Y-83281310D02*
X157191430Y-83324167D01*
X157191430Y-83324167D02*
X157234287Y-83281310D01*
X157234287Y-83281310D02*
X157191430Y-83238453D01*
X157191430Y-83238453D02*
X157191430Y-83324167D01*
X157620001Y-83538453D02*
X157620001Y-84438453D01*
X157620001Y-83581310D02*
X157705716Y-83538453D01*
X157705716Y-83538453D02*
X157877144Y-83538453D01*
X157877144Y-83538453D02*
X157962858Y-83581310D01*
X157962858Y-83581310D02*
X158005716Y-83624167D01*
X158005716Y-83624167D02*
X158048573Y-83709881D01*
X158048573Y-83709881D02*
X158048573Y-83967024D01*
X158048573Y-83967024D02*
X158005716Y-84052738D01*
X158005716Y-84052738D02*
X157962858Y-84095596D01*
X157962858Y-84095596D02*
X157877144Y-84138453D01*
X157877144Y-84138453D02*
X157705716Y-84138453D01*
X157705716Y-84138453D02*
X157620001Y-84095596D01*
X158434287Y-83538453D02*
X158434287Y-84438453D01*
X158434287Y-83581310D02*
X158520002Y-83538453D01*
X158520002Y-83538453D02*
X158691430Y-83538453D01*
X158691430Y-83538453D02*
X158777144Y-83581310D01*
X158777144Y-83581310D02*
X158820002Y-83624167D01*
X158820002Y-83624167D02*
X158862859Y-83709881D01*
X158862859Y-83709881D02*
X158862859Y-83967024D01*
X158862859Y-83967024D02*
X158820002Y-84052738D01*
X158820002Y-84052738D02*
X158777144Y-84095596D01*
X158777144Y-84095596D02*
X158691430Y-84138453D01*
X158691430Y-84138453D02*
X158520002Y-84138453D01*
X158520002Y-84138453D02*
X158434287Y-84095596D01*
X159591430Y-84095596D02*
X159505716Y-84138453D01*
X159505716Y-84138453D02*
X159334288Y-84138453D01*
X159334288Y-84138453D02*
X159248573Y-84095596D01*
X159248573Y-84095596D02*
X159205716Y-84009881D01*
X159205716Y-84009881D02*
X159205716Y-83667024D01*
X159205716Y-83667024D02*
X159248573Y-83581310D01*
X159248573Y-83581310D02*
X159334288Y-83538453D01*
X159334288Y-83538453D02*
X159505716Y-83538453D01*
X159505716Y-83538453D02*
X159591430Y-83581310D01*
X159591430Y-83581310D02*
X159634288Y-83667024D01*
X159634288Y-83667024D02*
X159634288Y-83752738D01*
X159634288Y-83752738D02*
X159205716Y-83838453D01*
X160020002Y-84138453D02*
X160020002Y-83538453D01*
X160020002Y-83709881D02*
X160062859Y-83624167D01*
X160062859Y-83624167D02*
X160105717Y-83581310D01*
X160105717Y-83581310D02*
X160191431Y-83538453D01*
X160191431Y-83538453D02*
X160277145Y-83538453D01*
X161134288Y-83238453D02*
X161648574Y-83238453D01*
X161391431Y-84138453D02*
X161391431Y-83238453D01*
X162248573Y-83667024D02*
X161948573Y-83667024D01*
X161948573Y-84138453D02*
X161948573Y-83238453D01*
X161948573Y-83238453D02*
X162377145Y-83238453D01*
X162591431Y-83238453D02*
X163105717Y-83238453D01*
X162848574Y-84138453D02*
X162848574Y-83238453D01*
X164605716Y-84138453D02*
X164305716Y-83709881D01*
X164091430Y-84138453D02*
X164091430Y-83238453D01*
X164091430Y-83238453D02*
X164434287Y-83238453D01*
X164434287Y-83238453D02*
X164520002Y-83281310D01*
X164520002Y-83281310D02*
X164562859Y-83324167D01*
X164562859Y-83324167D02*
X164605716Y-83409881D01*
X164605716Y-83409881D02*
X164605716Y-83538453D01*
X164605716Y-83538453D02*
X164562859Y-83624167D01*
X164562859Y-83624167D02*
X164520002Y-83667024D01*
X164520002Y-83667024D02*
X164434287Y-83709881D01*
X164434287Y-83709881D02*
X164091430Y-83709881D01*
X164991430Y-84138453D02*
X164991430Y-83538453D01*
X164991430Y-83238453D02*
X164948573Y-83281310D01*
X164948573Y-83281310D02*
X164991430Y-83324167D01*
X164991430Y-83324167D02*
X165034287Y-83281310D01*
X165034287Y-83281310D02*
X164991430Y-83238453D01*
X164991430Y-83238453D02*
X164991430Y-83324167D01*
X165377144Y-84095596D02*
X165462858Y-84138453D01*
X165462858Y-84138453D02*
X165634287Y-84138453D01*
X165634287Y-84138453D02*
X165720001Y-84095596D01*
X165720001Y-84095596D02*
X165762858Y-84009881D01*
X165762858Y-84009881D02*
X165762858Y-83967024D01*
X165762858Y-83967024D02*
X165720001Y-83881310D01*
X165720001Y-83881310D02*
X165634287Y-83838453D01*
X165634287Y-83838453D02*
X165505716Y-83838453D01*
X165505716Y-83838453D02*
X165420001Y-83795596D01*
X165420001Y-83795596D02*
X165377144Y-83709881D01*
X165377144Y-83709881D02*
X165377144Y-83667024D01*
X165377144Y-83667024D02*
X165420001Y-83581310D01*
X165420001Y-83581310D02*
X165505716Y-83538453D01*
X165505716Y-83538453D02*
X165634287Y-83538453D01*
X165634287Y-83538453D02*
X165720001Y-83581310D01*
X166491429Y-84095596D02*
X166405715Y-84138453D01*
X166405715Y-84138453D02*
X166234287Y-84138453D01*
X166234287Y-84138453D02*
X166148572Y-84095596D01*
X166148572Y-84095596D02*
X166105715Y-84009881D01*
X166105715Y-84009881D02*
X166105715Y-83667024D01*
X166105715Y-83667024D02*
X166148572Y-83581310D01*
X166148572Y-83581310D02*
X166234287Y-83538453D01*
X166234287Y-83538453D02*
X166405715Y-83538453D01*
X166405715Y-83538453D02*
X166491429Y-83581310D01*
X166491429Y-83581310D02*
X166534287Y-83667024D01*
X166534287Y-83667024D02*
X166534287Y-83752738D01*
X166534287Y-83752738D02*
X166105715Y-83838453D01*
X166920001Y-84138453D02*
X166920001Y-83538453D01*
X166920001Y-83709881D02*
X166962858Y-83624167D01*
X166962858Y-83624167D02*
X167005716Y-83581310D01*
X167005716Y-83581310D02*
X167091430Y-83538453D01*
X167091430Y-83538453D02*
X167177144Y-83538453D01*
X168034287Y-83238453D02*
X168334287Y-84138453D01*
X168334287Y-84138453D02*
X168634287Y-83238453D01*
X169405716Y-84138453D02*
X168891430Y-84138453D01*
X169148573Y-84138453D02*
X169148573Y-83238453D01*
X169148573Y-83238453D02*
X169062859Y-83367024D01*
X169062859Y-83367024D02*
X168977144Y-83452738D01*
X168977144Y-83452738D02*
X168891430Y-83495596D01*
X169791430Y-84052738D02*
X169834287Y-84095596D01*
X169834287Y-84095596D02*
X169791430Y-84138453D01*
X169791430Y-84138453D02*
X169748573Y-84095596D01*
X169748573Y-84095596D02*
X169791430Y-84052738D01*
X169791430Y-84052738D02*
X169791430Y-84138453D01*
X170391430Y-83238453D02*
X170477144Y-83238453D01*
X170477144Y-83238453D02*
X170562858Y-83281310D01*
X170562858Y-83281310D02*
X170605716Y-83324167D01*
X170605716Y-83324167D02*
X170648573Y-83409881D01*
X170648573Y-83409881D02*
X170691430Y-83581310D01*
X170691430Y-83581310D02*
X170691430Y-83795596D01*
X170691430Y-83795596D02*
X170648573Y-83967024D01*
X170648573Y-83967024D02*
X170605716Y-84052738D01*
X170605716Y-84052738D02*
X170562858Y-84095596D01*
X170562858Y-84095596D02*
X170477144Y-84138453D01*
X170477144Y-84138453D02*
X170391430Y-84138453D01*
X170391430Y-84138453D02*
X170305716Y-84095596D01*
X170305716Y-84095596D02*
X170262858Y-84052738D01*
X170262858Y-84052738D02*
X170220001Y-83967024D01*
X170220001Y-83967024D02*
X170177144Y-83795596D01*
X170177144Y-83795596D02*
X170177144Y-83581310D01*
X170177144Y-83581310D02*
X170220001Y-83409881D01*
X170220001Y-83409881D02*
X170262858Y-83324167D01*
X170262858Y-83324167D02*
X170305716Y-83281310D01*
X170305716Y-83281310D02*
X170391430Y-83238453D01*
D11*
X151084316Y-74918415D02*
X151184316Y-74951748D01*
X151184316Y-74951748D02*
X151350983Y-74951748D01*
X151350983Y-74951748D02*
X151417649Y-74918415D01*
X151417649Y-74918415D02*
X151450983Y-74885081D01*
X151450983Y-74885081D02*
X151484316Y-74818415D01*
X151484316Y-74818415D02*
X151484316Y-74751748D01*
X151484316Y-74751748D02*
X151450983Y-74685081D01*
X151450983Y-74685081D02*
X151417649Y-74651748D01*
X151417649Y-74651748D02*
X151350983Y-74618415D01*
X151350983Y-74618415D02*
X151217649Y-74585081D01*
X151217649Y-74585081D02*
X151150983Y-74551748D01*
X151150983Y-74551748D02*
X151117649Y-74518415D01*
X151117649Y-74518415D02*
X151084316Y-74451748D01*
X151084316Y-74451748D02*
X151084316Y-74385081D01*
X151084316Y-74385081D02*
X151117649Y-74318415D01*
X151117649Y-74318415D02*
X151150983Y-74285081D01*
X151150983Y-74285081D02*
X151217649Y-74251748D01*
X151217649Y-74251748D02*
X151384316Y-74251748D01*
X151384316Y-74251748D02*
X151484316Y-74285081D01*
X151717650Y-74251748D02*
X151884316Y-74951748D01*
X151884316Y-74951748D02*
X152017650Y-74451748D01*
X152017650Y-74451748D02*
X152150983Y-74951748D01*
X152150983Y-74951748D02*
X152317650Y-74251748D01*
X152950983Y-74951748D02*
X152550983Y-74951748D01*
X152750983Y-74951748D02*
X152750983Y-74251748D01*
X152750983Y-74251748D02*
X152684316Y-74351748D01*
X152684316Y-74351748D02*
X152617650Y-74418415D01*
X152617650Y-74418415D02*
X152550983Y-74451748D01*
D10*
X187752666Y-79648819D02*
X187752666Y-80363104D01*
X187752666Y-80363104D02*
X187705047Y-80505961D01*
X187705047Y-80505961D02*
X187609809Y-80601200D01*
X187609809Y-80601200D02*
X187466952Y-80648819D01*
X187466952Y-80648819D02*
X187371714Y-80648819D01*
X188181238Y-79744057D02*
X188228857Y-79696438D01*
X188228857Y-79696438D02*
X188324095Y-79648819D01*
X188324095Y-79648819D02*
X188562190Y-79648819D01*
X188562190Y-79648819D02*
X188657428Y-79696438D01*
X188657428Y-79696438D02*
X188705047Y-79744057D01*
X188705047Y-79744057D02*
X188752666Y-79839295D01*
X188752666Y-79839295D02*
X188752666Y-79934533D01*
X188752666Y-79934533D02*
X188705047Y-80077390D01*
X188705047Y-80077390D02*
X188133619Y-80648819D01*
X188133619Y-80648819D02*
X188752666Y-80648819D01*
D11*
X155297308Y-64625698D02*
X155297308Y-65197126D01*
X155297308Y-65197126D02*
X155259213Y-65311412D01*
X155259213Y-65311412D02*
X155183022Y-65387603D01*
X155183022Y-65387603D02*
X155068737Y-65425698D01*
X155068737Y-65425698D02*
X154992546Y-65425698D01*
X156021118Y-64892364D02*
X156021118Y-65425698D01*
X155830642Y-64587603D02*
X155640165Y-65159031D01*
X155640165Y-65159031D02*
X156135404Y-65159031D01*
D10*
X184194819Y-81423333D02*
X184909104Y-81423333D01*
X184909104Y-81423333D02*
X185051961Y-81470952D01*
X185051961Y-81470952D02*
X185147200Y-81566190D01*
X185147200Y-81566190D02*
X185194819Y-81709047D01*
X185194819Y-81709047D02*
X185194819Y-81804285D01*
X184194819Y-81042380D02*
X184194819Y-80423333D01*
X184194819Y-80423333D02*
X184575771Y-80756666D01*
X184575771Y-80756666D02*
X184575771Y-80613809D01*
X184575771Y-80613809D02*
X184623390Y-80518571D01*
X184623390Y-80518571D02*
X184671009Y-80470952D01*
X184671009Y-80470952D02*
X184766247Y-80423333D01*
X184766247Y-80423333D02*
X185004342Y-80423333D01*
X185004342Y-80423333D02*
X185099580Y-80470952D01*
X185099580Y-80470952D02*
X185147200Y-80518571D01*
X185147200Y-80518571D02*
X185194819Y-80613809D01*
X185194819Y-80613809D02*
X185194819Y-80899523D01*
X185194819Y-80899523D02*
X185147200Y-80994761D01*
X185147200Y-80994761D02*
X185099580Y-81042380D01*
X182418666Y-69234819D02*
X182418666Y-69949104D01*
X182418666Y-69949104D02*
X182371047Y-70091961D01*
X182371047Y-70091961D02*
X182275809Y-70187200D01*
X182275809Y-70187200D02*
X182132952Y-70234819D01*
X182132952Y-70234819D02*
X182037714Y-70234819D01*
X183418666Y-70234819D02*
X182847238Y-70234819D01*
X183132952Y-70234819D02*
X183132952Y-69234819D01*
X183132952Y-69234819D02*
X183037714Y-69377676D01*
X183037714Y-69377676D02*
X182942476Y-69472914D01*
X182942476Y-69472914D02*
X182847238Y-69520533D01*
D12*
%TO.C,SW1*%
X154721200Y-82818973D02*
X154721200Y-74055973D01*
X154721200Y-74055973D02*
X150758800Y-74055973D01*
X150758800Y-82818973D02*
X154721200Y-82818973D01*
X150758800Y-74055973D02*
X150758800Y-82818973D01*
D13*
%TO.C,J2*%
X188930000Y-79270000D02*
X188930000Y-74070000D01*
X158390000Y-79270000D02*
X188930000Y-79270000D01*
X158390000Y-79270000D02*
X158390000Y-76670000D01*
X158390000Y-76670000D02*
X155790000Y-76670000D01*
X157120000Y-79270000D02*
X155790000Y-79270000D01*
X155790000Y-79270000D02*
X155790000Y-77940000D01*
X155790000Y-76670000D02*
X155790000Y-74070000D01*
X155790000Y-74070000D02*
X188930000Y-74070000D01*
%TO.C,J5*%
X189144000Y-68824000D02*
X189144000Y-66164000D01*
X158604000Y-68824000D02*
X189144000Y-68824000D01*
X158604000Y-68824000D02*
X158604000Y-66164000D01*
X158604000Y-66164000D02*
X189144000Y-66164000D01*
X157334000Y-68824000D02*
X156004000Y-68824000D01*
X156004000Y-68824000D02*
X156004000Y-67494000D01*
%TO.C,J3*%
X183850000Y-83048000D02*
X182520000Y-83048000D01*
X183850000Y-81718000D02*
X183850000Y-83048000D01*
X181250000Y-83048000D02*
X155790000Y-83048000D01*
X181250000Y-80388000D02*
X181250000Y-83048000D01*
X181250000Y-80388000D02*
X155790000Y-80388000D01*
X155790000Y-80388000D02*
X155790000Y-83048000D01*
%TO.C,J1*%
X184082000Y-72888000D02*
X182752000Y-72888000D01*
X184082000Y-71558000D02*
X184082000Y-72888000D01*
X181482000Y-72888000D02*
X156022000Y-72888000D01*
X181482000Y-70228000D02*
X181482000Y-72888000D01*
X181482000Y-70228000D02*
X156022000Y-70228000D01*
X156022000Y-70228000D02*
X156022000Y-72888000D01*
%TD*%
M02*
