M48
; DRILL file {KiCad 8.0.3} date 2024-12-22T12:44:29-0500
; FORMAT={-:-/ absolute / inch / decimal}
; #@! TF.CreationDate,2024-12-22T12:44:29-05:00
; #@! TF.GenerationSoftware,Kicad,Pcbnew,8.0.3
; #@! TF.FileFunction,Plated,1,2,PTH
FMAT,2
INCH
; #@! TA.AperFunction,Plated,PTH,ComponentDrill
T1C0.0323
; #@! TA.AperFunction,Plated,PTH,ComponentDrill
T2C0.0394
%
G90
G05
T2
X6.1858Y-2.9685
X6.1858Y-3.0685
X6.1858Y-3.2172
X6.1943Y-2.5572
X6.1943Y-2.6572
X6.195Y-2.8172
X6.2858Y-2.9685
X6.2858Y-3.0685
X6.2858Y-3.2172
X6.2943Y-2.5572
X6.2943Y-2.6572
X6.295Y-2.8172
X6.3858Y-2.9685
X6.3858Y-3.0685
X6.3858Y-3.2172
X6.3943Y-2.6572
X6.395Y-2.8172
X6.4858Y-2.9685
X6.4858Y-3.0685
X6.4858Y-3.2172
X6.4943Y-2.6572
X6.495Y-2.8172
X6.5858Y-2.9685
X6.5858Y-3.0685
X6.5858Y-3.2172
X6.5943Y-2.6572
X6.595Y-2.8172
X6.6858Y-2.9685
X6.6858Y-3.0685
X6.6858Y-3.2172
X6.6943Y-2.6572
X6.695Y-2.8172
X6.7858Y-2.9685
X6.7858Y-3.0685
X6.7858Y-3.2172
X6.7943Y-2.6572
X6.795Y-2.8172
X6.8858Y-2.9685
X6.8858Y-3.0685
X6.8858Y-3.2172
X6.8943Y-2.6572
X6.895Y-2.8172
X6.9858Y-2.9685
X6.9858Y-3.0685
X6.9858Y-3.2172
X6.9943Y-2.6572
X6.995Y-2.5572
X6.995Y-2.8172
X7.0858Y-2.9685
X7.0858Y-3.0685
X7.0858Y-3.2172
X7.0943Y-2.6572
X7.095Y-2.5572
X7.095Y-2.8172
X7.1858Y-2.9685
X7.1858Y-3.0685
X7.1858Y-3.2172
X7.1943Y-2.6572
X7.195Y-2.5572
X7.195Y-2.8172
X7.2858Y-2.9685
X7.2858Y-3.0685
X7.2943Y-2.6572
X7.295Y-2.5572
X7.3858Y-2.9685
X7.3858Y-3.0685
X7.3943Y-2.6572
X7.395Y-2.5572
T1
G00X6.028Y-2.9897
M15
G01X5.9988Y-2.9897
M16
G05
G00X6.028Y-3.0881
M15
G01X5.9988Y-3.0881
M16
G05
G00X6.0319Y-3.1865
M15
G01X5.9948Y-3.1865
M16
G05
M30
