%TF.GenerationSoftware,KiCad,Pcbnew,8.0.3*%
%TF.CreationDate,2024-12-22T12:47:46-05:00*%
%TF.ProjectId,klipper_screen_riser,6b6c6970-7065-4725-9f73-637265656e5f,rev?*%
%TF.SameCoordinates,Original*%
%TF.FileFunction,Copper,L1,Top*%
%TF.FilePolarity,Positive*%
%FSLAX46Y46*%
G04 Gerber Fmt 4.6, Leading zero omitted, Abs format (unit mm)*
G04 Created by KiCad (PCBNEW 8.0.3) date 2024-12-22 12:47:46*
%MOMM*%
%LPD*%
G01*
G04 APERTURE LIST*
%TA.AperFunction,ComponentPad*%
%ADD10O,2.270000X1.270000*%
%TD*%
%TA.AperFunction,ComponentPad*%
%ADD11R,2.270000X1.270000*%
%TD*%
%TA.AperFunction,ComponentPad*%
%ADD12O,1.700000X1.700000*%
%TD*%
%TA.AperFunction,ComponentPad*%
%ADD13R,1.700000X1.700000*%
%TD*%
%TA.AperFunction,Conductor*%
%ADD14C,1.000000*%
%TD*%
%TA.AperFunction,Conductor*%
%ADD15C,0.254000*%
%TD*%
%TA.AperFunction,Conductor*%
%ADD16C,0.200000*%
%TD*%
G04 APERTURE END LIST*
D10*
%TO.P,SW1,3,3*%
%TO.N,unconnected-(SW1-Pad3)*%
X152740000Y-75937473D03*
%TO.P,SW1,2,2*%
%TO.N,Net-(J2-Pin_2)*%
X152740000Y-78437473D03*
D11*
%TO.P,SW1,1,1*%
%TO.N,+5V*%
X152740000Y-80937473D03*
%TD*%
D12*
%TO.P,J2,26,Pin_26*%
%TO.N,TP_CS*%
X187600000Y-75400000D03*
%TO.P,J2,25,Pin_25*%
%TO.N,GND*%
X187600000Y-77940000D03*
%TO.P,J2,24,Pin_24*%
%TO.N,LCD_CS*%
X185060000Y-75400000D03*
%TO.P,J2,23,Pin_23*%
%TO.N,LCD_SCK {slash} TP_SCK *%
X185060000Y-77940000D03*
%TO.P,J2,22,Pin_22*%
%TO.N,RST*%
X182520000Y-75400000D03*
%TO.P,J2,21,Pin_21*%
%TO.N,TP_SO*%
X182520000Y-77940000D03*
%TO.P,J2,20,Pin_20*%
%TO.N,GND*%
X179980000Y-75400000D03*
%TO.P,J2,19,Pin_19*%
%TO.N,LCD_SI {slash} TP_SI *%
X179980000Y-77940000D03*
%TO.P,J2,18,Pin_18*%
%TO.N,LCD_RS *%
X177440000Y-75400000D03*
%TO.P,J2,17,Pin_17*%
%TO.N,+3.3V*%
X177440000Y-77940000D03*
%TO.P,J2,16,Pin_16*%
%TO.N,unconnected-(J2-Pin_16-Pad16)*%
X174900000Y-75400000D03*
%TO.P,J2,15,Pin_15*%
%TO.N,unconnected-(J2-Pin_15-Pad15)*%
X174900000Y-77940000D03*
%TO.P,J2,14,Pin_14*%
%TO.N,GND*%
X172360000Y-75400000D03*
%TO.P,J2,13,Pin_13*%
%TO.N,unconnected-(J2-Pin_13-Pad13)*%
X172360000Y-77940000D03*
%TO.P,J2,12,Pin_12*%
%TO.N,unconnected-(J2-Pin_12-Pad12)*%
X169820000Y-75400000D03*
%TO.P,J2,11,Pin_11*%
%TO.N,TP_IRQ *%
X169820000Y-77940000D03*
%TO.P,J2,10,Pin_10*%
%TO.N,unconnected-(J2-Pin_10-Pad10)*%
X167280000Y-75400000D03*
%TO.P,J2,9,Pin_9*%
%TO.N,GND*%
X167280000Y-77940000D03*
%TO.P,J2,8,Pin_8*%
%TO.N,unconnected-(J2-Pin_8-Pad8)*%
X164740000Y-75400000D03*
%TO.P,J2,7,Pin_7*%
%TO.N,unconnected-(J2-Pin_7-Pad7)*%
X164740000Y-77940000D03*
%TO.P,J2,6,Pin_6*%
%TO.N,GND*%
X162200000Y-75400000D03*
%TO.P,J2,5,Pin_5*%
%TO.N,unconnected-(J2-Pin_5-Pad5)*%
X162200000Y-77940000D03*
%TO.P,J2,4,Pin_4*%
%TO.N,Net-(J2-Pin_2)*%
X159660000Y-75400000D03*
%TO.P,J2,3,Pin_3*%
%TO.N,unconnected-(J2-Pin_3-Pad3)*%
X159660000Y-77940000D03*
%TO.P,J2,2,Pin_2*%
%TO.N,Net-(J2-Pin_2)*%
X157120000Y-75400000D03*
D13*
%TO.P,J2,1,Pin_1*%
%TO.N,+3.3V*%
X157120000Y-77940000D03*
%TD*%
D12*
%TO.P,J5,13,Pin_13*%
%TO.N,GND*%
X187814000Y-67494000D03*
%TO.P,J5,12,Pin_12*%
%TO.N,LCD_SCK {slash} TP_SCK *%
X185274000Y-67494000D03*
%TO.P,J5,11,Pin_11*%
%TO.N,TP_SO*%
X182734000Y-67494000D03*
%TO.P,J5,10,Pin_10*%
%TO.N,LCD_SI {slash} TP_SI *%
X180194000Y-67494000D03*
%TO.P,J5,9,Pin_9*%
%TO.N,+3.3V*%
X177654000Y-67494000D03*
%TO.P,J5,8,Pin_8*%
%TO.N,unconnected-(J5-Pin_8-Pad8)*%
X175114000Y-67494000D03*
%TO.P,J5,7,Pin_7*%
%TO.N,unconnected-(J5-Pin_7-Pad7)*%
X172574000Y-67494000D03*
%TO.P,J5,6,Pin_6*%
%TO.N,TP_IRQ *%
X170034000Y-67494000D03*
%TO.P,J5,5,Pin_5*%
%TO.N,GND*%
X167494000Y-67494000D03*
%TO.P,J5,4,Pin_4*%
%TO.N,unconnected-(J5-Pin_4-Pad4)*%
X164954000Y-67494000D03*
%TO.P,J5,3,Pin_3*%
%TO.N,unconnected-(J5-Pin_3-Pad3)*%
X162414000Y-67494000D03*
%TO.P,J5,2,Pin_2*%
%TO.N,unconnected-(J5-Pin_2-Pad2)*%
X159874000Y-67494000D03*
D13*
%TO.P,J5,1,Pin_1*%
%TO.N,+3.3V*%
X157334000Y-67494000D03*
%TD*%
D12*
%TO.P,J4,2,Pin_2*%
%TO.N,+5V*%
X157334000Y-64954000D03*
D13*
%TO.P,J4,1,Pin_1*%
X159874000Y-64954000D03*
%TD*%
D12*
%TO.P,J3,11,Pin_11*%
%TO.N,+3.3V*%
X157120000Y-81718000D03*
%TO.P,J3,10,Pin_10*%
%TO.N,+5V*%
X159660000Y-81718000D03*
%TO.P,J3,9,Pin_9*%
%TO.N,GND*%
X162200000Y-81718000D03*
%TO.P,J3,8,Pin_8*%
%TO.N,TP_IRQ *%
X164740000Y-81718000D03*
%TO.P,J3,7,Pin_7*%
%TO.N,LCD_RS *%
X167280000Y-81718000D03*
%TO.P,J3,6,Pin_6*%
%TO.N,LCD_SI {slash} TP_SI *%
X169820000Y-81718000D03*
%TO.P,J3,5,Pin_5*%
%TO.N,TP_SO*%
X172360000Y-81718000D03*
%TO.P,J3,4,Pin_4*%
%TO.N,RST*%
X174900000Y-81718000D03*
%TO.P,J3,3,Pin_3*%
%TO.N,LCD_SCK {slash} TP_SCK *%
X177440000Y-81718000D03*
%TO.P,J3,2,Pin_2*%
%TO.N,LCD_CS*%
X179980000Y-81718000D03*
D13*
%TO.P,J3,1,Pin_1*%
%TO.N,TP_CS*%
X182520000Y-81718000D03*
%TD*%
D12*
%TO.P,J6,5,Pin_5*%
%TO.N,LCD_RS *%
X177672000Y-64954000D03*
%TO.P,J6,4,Pin_4*%
%TO.N,GND*%
X180212000Y-64954000D03*
%TO.P,J6,3,Pin_3*%
%TO.N,RST*%
X182752000Y-64954000D03*
%TO.P,J6,2,Pin_2*%
%TO.N,LCD_CS*%
X185292000Y-64954000D03*
D13*
%TO.P,J6,1,Pin_1*%
%TO.N,TP_CS*%
X187832000Y-64954000D03*
%TD*%
D12*
%TO.P,J1,11,Pin_11*%
%TO.N,+3.3V*%
X157352000Y-71558000D03*
%TO.P,J1,10,Pin_10*%
%TO.N,+5V*%
X159892000Y-71558000D03*
%TO.P,J1,9,Pin_9*%
%TO.N,GND*%
X162432000Y-71558000D03*
%TO.P,J1,8,Pin_8*%
%TO.N,TP_IRQ *%
X164972000Y-71558000D03*
%TO.P,J1,7,Pin_7*%
%TO.N,LCD_RS *%
X167512000Y-71558000D03*
%TO.P,J1,6,Pin_6*%
%TO.N,LCD_SI {slash} TP_SI *%
X170052000Y-71558000D03*
%TO.P,J1,5,Pin_5*%
%TO.N,TP_SO*%
X172592000Y-71558000D03*
%TO.P,J1,4,Pin_4*%
%TO.N,RST*%
X175132000Y-71558000D03*
%TO.P,J1,3,Pin_3*%
%TO.N,LCD_SCK {slash} TP_SCK *%
X177672000Y-71558000D03*
%TO.P,J1,2,Pin_2*%
%TO.N,LCD_CS*%
X180212000Y-71558000D03*
D13*
%TO.P,J1,1,Pin_1*%
%TO.N,TP_CS*%
X182752000Y-71558000D03*
%TD*%
D14*
%TO.N,+3.3V*%
X157120000Y-81718000D02*
X157120000Y-77940000D01*
X157304464Y-69558000D02*
X157304464Y-71510464D01*
X157304464Y-71510464D02*
X157352000Y-71558000D01*
D15*
X175590000Y-69558000D02*
X157304464Y-69558000D01*
D14*
X157304464Y-67598000D02*
X157304464Y-69558000D01*
D15*
X177654000Y-67494000D02*
X175590000Y-69558000D01*
X177685032Y-67494000D02*
X177654000Y-67494000D01*
%TO.N,RST*%
X181228000Y-78670000D02*
X179857705Y-80040295D01*
X176632000Y-70058000D02*
X175132000Y-71558000D01*
X182520000Y-75400000D02*
X181228000Y-76692000D01*
X179857705Y-80040295D02*
X176577705Y-80040295D01*
X179679057Y-70058000D02*
X176632000Y-70058000D01*
X176577705Y-80040295D02*
X174900000Y-81718000D01*
X182683032Y-65058000D02*
X181407581Y-66333451D01*
X181407581Y-66333451D02*
X181407581Y-68329476D01*
X181407581Y-68329476D02*
X179679057Y-70058000D01*
X181228000Y-76692000D02*
X181228000Y-78670000D01*
%TO.N,TP_CS*%
X182946530Y-81718000D02*
X182520000Y-81718000D01*
X186237000Y-76763000D02*
X186237000Y-78427530D01*
X183179057Y-71558000D02*
X182752000Y-71558000D01*
D16*
X182752000Y-70773472D02*
X182752000Y-71558000D01*
D15*
X187600000Y-75400000D02*
X186237000Y-76763000D01*
D16*
X186544884Y-66241116D02*
X186544884Y-68285116D01*
X187832000Y-64954000D02*
X186544884Y-66241116D01*
X185840000Y-68990000D02*
X184535472Y-68990000D01*
X186544884Y-68285116D02*
X185840000Y-68990000D01*
X184535472Y-68990000D02*
X182752000Y-70773472D01*
D15*
X186237000Y-78427530D02*
X182946530Y-81718000D01*
%TO.N,LCD_RS *%
X168999387Y-79998613D02*
X167280000Y-81718000D01*
X177440000Y-75400000D02*
X176166239Y-76673761D01*
X176166239Y-76673761D02*
X176166239Y-78477228D01*
X176166239Y-78477228D02*
X174644854Y-79998613D01*
X174644854Y-79998613D02*
X168999387Y-79998613D01*
D14*
%TO.N,+5V*%
X155592527Y-83750000D02*
X158368000Y-83750000D01*
X158368000Y-83750000D02*
X159660000Y-82458000D01*
X152780000Y-80937473D02*
X155592527Y-83750000D01*
X159660000Y-82458000D02*
X159660000Y-81718000D01*
D15*
%TO.N,TP_IRQ *%
X169820000Y-77940000D02*
X167750967Y-80009033D01*
X166448967Y-80009033D02*
X164740000Y-81718000D01*
X167750967Y-80009033D02*
X166448967Y-80009033D01*
%TO.N,GND*%
X170200339Y-76684191D02*
X168535809Y-76684191D01*
X167280000Y-77940000D02*
X165630000Y-79590000D01*
X165630000Y-79590000D02*
X164240000Y-79590000D01*
X171484530Y-75400000D02*
X170200339Y-76684191D01*
X167280000Y-77940000D02*
X165997029Y-76657029D01*
X165997029Y-76657029D02*
X163457029Y-76657029D01*
X168535809Y-76684191D02*
X167280000Y-77940000D01*
X172360000Y-75400000D02*
X171484530Y-75400000D01*
X163457029Y-76657029D02*
X162200000Y-75400000D01*
%TO.N,LCD_CS*%
X181657705Y-80040295D02*
X179980000Y-81718000D01*
X185223032Y-65058000D02*
X183956935Y-66324097D01*
X183956935Y-66324097D02*
X183956935Y-68120522D01*
X180519457Y-71558000D02*
X180212000Y-71558000D01*
X182236705Y-80040295D02*
X181657705Y-80040295D01*
X185060000Y-75400000D02*
X183768000Y-76692000D01*
X183768000Y-76692000D02*
X183768000Y-78509000D01*
X183768000Y-78509000D02*
X182236705Y-80040295D01*
X183956935Y-68120522D02*
X180519457Y-71558000D01*
D14*
%TO.N,Net-(J2-Pin_2)*%
X157120000Y-75400000D02*
X155817473Y-75400000D01*
X157120000Y-75400000D02*
X159660000Y-75400000D01*
X155817473Y-75400000D02*
X152780000Y-78437473D01*
%TD*%
%TA.AperFunction,Conductor*%
%TO.N,GND*%
G36*
X187850000Y-79270633D02*
G01*
X188063483Y-79213433D01*
X188063492Y-79213429D01*
X188277578Y-79113600D01*
X188471082Y-78978105D01*
X188527819Y-78921369D01*
X188589142Y-78887884D01*
X188658834Y-78892868D01*
X188714767Y-78934740D01*
X188739184Y-79000204D01*
X188739500Y-79009050D01*
X188739500Y-81171887D01*
X188719815Y-81238926D01*
X188667011Y-81284681D01*
X188597853Y-81294625D01*
X188534297Y-81265600D01*
X188514196Y-81243395D01*
X188449191Y-81151304D01*
X188385784Y-81083412D01*
X188253053Y-80941292D01*
X188030147Y-80759945D01*
X188030146Y-80759944D01*
X187784617Y-80610634D01*
X187521063Y-80496158D01*
X187521061Y-80496157D01*
X187521058Y-80496156D01*
X187391578Y-80459877D01*
X187244364Y-80418630D01*
X187244359Y-80418629D01*
X187244358Y-80418629D01*
X187102018Y-80399064D01*
X186959679Y-80379500D01*
X186959678Y-80379500D01*
X186672322Y-80379500D01*
X186672321Y-80379500D01*
X186387642Y-80418629D01*
X186387635Y-80418630D01*
X186179861Y-80476845D01*
X186110942Y-80496156D01*
X186110939Y-80496156D01*
X186110936Y-80496158D01*
X186110935Y-80496158D01*
X185847382Y-80610634D01*
X185601853Y-80759944D01*
X185378950Y-80941289D01*
X185182812Y-81151299D01*
X185017098Y-81386064D01*
X184884894Y-81641206D01*
X184788667Y-81911962D01*
X184788666Y-81911965D01*
X184730201Y-82193319D01*
X184710592Y-82480000D01*
X184730201Y-82766680D01*
X184730201Y-82766684D01*
X184730202Y-82766686D01*
X184739272Y-82810335D01*
X184788666Y-83048034D01*
X184788667Y-83048037D01*
X184884894Y-83318793D01*
X184884893Y-83318793D01*
X185017098Y-83573935D01*
X185104190Y-83697317D01*
X185182811Y-83808698D01*
X185220705Y-83849272D01*
X185250209Y-83880863D01*
X185281580Y-83943294D01*
X185274220Y-84012775D01*
X185230463Y-84067246D01*
X185164203Y-84089414D01*
X185159585Y-84089500D01*
X159742782Y-84089500D01*
X159675743Y-84069815D01*
X159629988Y-84017011D01*
X159620044Y-83947853D01*
X159649069Y-83884297D01*
X159655101Y-83877819D01*
X159812602Y-83720318D01*
X160297778Y-83235141D01*
X160297782Y-83235139D01*
X160437139Y-83095782D01*
X160546632Y-82931914D01*
X160615071Y-82766686D01*
X160622051Y-82749836D01*
X160635568Y-82681880D01*
X160667950Y-82619972D01*
X160669422Y-82618472D01*
X160698495Y-82589401D01*
X160828730Y-82403405D01*
X160883307Y-82359781D01*
X160952805Y-82352587D01*
X161015160Y-82384110D01*
X161031879Y-82403405D01*
X161161890Y-82589078D01*
X161328917Y-82756105D01*
X161522421Y-82891600D01*
X161736507Y-82991429D01*
X161736516Y-82991433D01*
X161950000Y-83048634D01*
X161950000Y-82151012D01*
X162007007Y-82183925D01*
X162134174Y-82218000D01*
X162265826Y-82218000D01*
X162392993Y-82183925D01*
X162450000Y-82151012D01*
X162450000Y-83048633D01*
X162663483Y-82991433D01*
X162663492Y-82991429D01*
X162877578Y-82891600D01*
X163071082Y-82756105D01*
X163238105Y-82589082D01*
X163368119Y-82403405D01*
X163422696Y-82359781D01*
X163492195Y-82352588D01*
X163554549Y-82384110D01*
X163571269Y-82403405D01*
X163584180Y-82421844D01*
X163701505Y-82589401D01*
X163868599Y-82756495D01*
X163965384Y-82824265D01*
X164062165Y-82892032D01*
X164062167Y-82892033D01*
X164062170Y-82892035D01*
X164276337Y-82991903D01*
X164504592Y-83053063D01*
X164681034Y-83068500D01*
X164739999Y-83073659D01*
X164740000Y-83073659D01*
X164740001Y-83073659D01*
X164798966Y-83068500D01*
X164975408Y-83053063D01*
X165203663Y-82991903D01*
X165417830Y-82892035D01*
X165611401Y-82756495D01*
X165778495Y-82589401D01*
X165892891Y-82426026D01*
X165908425Y-82403842D01*
X165963002Y-82360217D01*
X166032500Y-82353023D01*
X166094855Y-82384546D01*
X166111575Y-82403842D01*
X166241281Y-82589082D01*
X166241505Y-82589401D01*
X166408599Y-82756495D01*
X166505384Y-82824265D01*
X166602165Y-82892032D01*
X166602167Y-82892033D01*
X166602170Y-82892035D01*
X166816337Y-82991903D01*
X167044592Y-83053063D01*
X167221034Y-83068500D01*
X167279999Y-83073659D01*
X167280000Y-83073659D01*
X167280001Y-83073659D01*
X167338966Y-83068500D01*
X167515408Y-83053063D01*
X167743663Y-82991903D01*
X167957830Y-82892035D01*
X168151401Y-82756495D01*
X168318495Y-82589401D01*
X168432891Y-82426026D01*
X168448425Y-82403842D01*
X168503002Y-82360217D01*
X168572500Y-82353023D01*
X168634855Y-82384546D01*
X168651575Y-82403842D01*
X168781281Y-82589082D01*
X168781505Y-82589401D01*
X168948599Y-82756495D01*
X169045384Y-82824265D01*
X169142165Y-82892032D01*
X169142167Y-82892033D01*
X169142170Y-82892035D01*
X169356337Y-82991903D01*
X169584592Y-83053063D01*
X169761034Y-83068500D01*
X169819999Y-83073659D01*
X169820000Y-83073659D01*
X169820001Y-83073659D01*
X169878966Y-83068500D01*
X170055408Y-83053063D01*
X170283663Y-82991903D01*
X170497830Y-82892035D01*
X170691401Y-82756495D01*
X170858495Y-82589401D01*
X170972891Y-82426026D01*
X170988425Y-82403842D01*
X171043002Y-82360217D01*
X171112500Y-82353023D01*
X171174855Y-82384546D01*
X171191575Y-82403842D01*
X171321281Y-82589082D01*
X171321505Y-82589401D01*
X171488599Y-82756495D01*
X171585384Y-82824265D01*
X171682165Y-82892032D01*
X171682167Y-82892033D01*
X171682170Y-82892035D01*
X171896337Y-82991903D01*
X172124592Y-83053063D01*
X172301034Y-83068500D01*
X172359999Y-83073659D01*
X172360000Y-83073659D01*
X172360001Y-83073659D01*
X172418966Y-83068500D01*
X172595408Y-83053063D01*
X172823663Y-82991903D01*
X173037830Y-82892035D01*
X173231401Y-82756495D01*
X173398495Y-82589401D01*
X173512891Y-82426026D01*
X173528425Y-82403842D01*
X173583002Y-82360217D01*
X173652500Y-82353023D01*
X173714855Y-82384546D01*
X173731575Y-82403842D01*
X173861281Y-82589082D01*
X173861505Y-82589401D01*
X174028599Y-82756495D01*
X174125384Y-82824265D01*
X174222165Y-82892032D01*
X174222167Y-82892033D01*
X174222170Y-82892035D01*
X174436337Y-82991903D01*
X174664592Y-83053063D01*
X174841034Y-83068500D01*
X174899999Y-83073659D01*
X174900000Y-83073659D01*
X174900001Y-83073659D01*
X174958966Y-83068500D01*
X175135408Y-83053063D01*
X175363663Y-82991903D01*
X175577830Y-82892035D01*
X175771401Y-82756495D01*
X175938495Y-82589401D01*
X176052891Y-82426026D01*
X176068425Y-82403842D01*
X176123002Y-82360217D01*
X176192500Y-82353023D01*
X176254855Y-82384546D01*
X176271575Y-82403842D01*
X176401281Y-82589082D01*
X176401505Y-82589401D01*
X176568599Y-82756495D01*
X176665384Y-82824265D01*
X176762165Y-82892032D01*
X176762167Y-82892033D01*
X176762170Y-82892035D01*
X176976337Y-82991903D01*
X177204592Y-83053063D01*
X177381034Y-83068500D01*
X177439999Y-83073659D01*
X177440000Y-83073659D01*
X177440001Y-83073659D01*
X177498966Y-83068500D01*
X177675408Y-83053063D01*
X177903663Y-82991903D01*
X178117830Y-82892035D01*
X178311401Y-82756495D01*
X178478495Y-82589401D01*
X178592891Y-82426026D01*
X178608425Y-82403842D01*
X178663002Y-82360217D01*
X178732500Y-82353023D01*
X178794855Y-82384546D01*
X178811575Y-82403842D01*
X178941281Y-82589082D01*
X178941505Y-82589401D01*
X179108599Y-82756495D01*
X179205384Y-82824265D01*
X179302165Y-82892032D01*
X179302167Y-82892033D01*
X179302170Y-82892035D01*
X179516337Y-82991903D01*
X179744592Y-83053063D01*
X179921034Y-83068500D01*
X179979999Y-83073659D01*
X179980000Y-83073659D01*
X179980001Y-83073659D01*
X180038966Y-83068500D01*
X180215408Y-83053063D01*
X180443663Y-82991903D01*
X180657830Y-82892035D01*
X180851401Y-82756495D01*
X180973329Y-82634566D01*
X181034648Y-82601084D01*
X181104340Y-82606068D01*
X181160274Y-82647939D01*
X181177189Y-82678917D01*
X181226202Y-82810328D01*
X181226206Y-82810335D01*
X181312452Y-82925544D01*
X181312455Y-82925547D01*
X181427664Y-83011793D01*
X181427671Y-83011797D01*
X181562517Y-83062091D01*
X181562516Y-83062091D01*
X181569444Y-83062835D01*
X181622127Y-83068500D01*
X183417872Y-83068499D01*
X183477483Y-83062091D01*
X183612331Y-83011796D01*
X183727546Y-82925546D01*
X183813796Y-82810331D01*
X183864091Y-82675483D01*
X183870500Y-82615873D01*
X183870499Y-81732809D01*
X183890183Y-81665771D01*
X183906813Y-81645134D01*
X186564255Y-78987693D01*
X186625574Y-78954211D01*
X186695266Y-78959195D01*
X186723880Y-78975871D01*
X186724488Y-78975004D01*
X186922421Y-79113600D01*
X187136507Y-79213429D01*
X187136516Y-79213433D01*
X187350000Y-79270634D01*
X187350000Y-78373012D01*
X187407007Y-78405925D01*
X187534174Y-78440000D01*
X187665826Y-78440000D01*
X187792993Y-78405925D01*
X187850000Y-78373012D01*
X187850000Y-79270633D01*
G37*
%TD.AperFunction*%
%TA.AperFunction,Conductor*%
G36*
X166095160Y-78606110D02*
G01*
X166111879Y-78625405D01*
X166241890Y-78811078D01*
X166408917Y-78978105D01*
X166602421Y-79113600D01*
X166670083Y-79145151D01*
X166722522Y-79191323D01*
X166741674Y-79258517D01*
X166721458Y-79325398D01*
X166668293Y-79370732D01*
X166617678Y-79381533D01*
X166387162Y-79381533D01*
X166265937Y-79405646D01*
X166265927Y-79405649D01*
X166151740Y-79452946D01*
X166151727Y-79452953D01*
X166048959Y-79521621D01*
X166048955Y-79521624D01*
X165193415Y-80377164D01*
X165132092Y-80410649D01*
X165073641Y-80409258D01*
X164975413Y-80382938D01*
X164975403Y-80382936D01*
X164740001Y-80362341D01*
X164739999Y-80362341D01*
X164504596Y-80382936D01*
X164504586Y-80382938D01*
X164276344Y-80444094D01*
X164276335Y-80444098D01*
X164062171Y-80543964D01*
X164062169Y-80543965D01*
X163868597Y-80679505D01*
X163701508Y-80846594D01*
X163571269Y-81032595D01*
X163516692Y-81076219D01*
X163447193Y-81083412D01*
X163384839Y-81051890D01*
X163368119Y-81032594D01*
X163238113Y-80846926D01*
X163238108Y-80846920D01*
X163071082Y-80679894D01*
X162877578Y-80544399D01*
X162663492Y-80444570D01*
X162663486Y-80444567D01*
X162450000Y-80387364D01*
X162450000Y-81284988D01*
X162392993Y-81252075D01*
X162265826Y-81218000D01*
X162134174Y-81218000D01*
X162007007Y-81252075D01*
X161950000Y-81284988D01*
X161950000Y-80387364D01*
X161949999Y-80387364D01*
X161736513Y-80444567D01*
X161736507Y-80444570D01*
X161522422Y-80544399D01*
X161522420Y-80544400D01*
X161328926Y-80679886D01*
X161328920Y-80679891D01*
X161161891Y-80846920D01*
X161161890Y-80846922D01*
X161031880Y-81032595D01*
X160977303Y-81076219D01*
X160907804Y-81083412D01*
X160845450Y-81051890D01*
X160828730Y-81032594D01*
X160698494Y-80846597D01*
X160531402Y-80679506D01*
X160531395Y-80679501D01*
X160337834Y-80543967D01*
X160337830Y-80543965D01*
X160337828Y-80543964D01*
X160123663Y-80444097D01*
X160123659Y-80444096D01*
X160123655Y-80444094D01*
X159895413Y-80382938D01*
X159895403Y-80382936D01*
X159660001Y-80362341D01*
X159659999Y-80362341D01*
X159424596Y-80382936D01*
X159424586Y-80382938D01*
X159196344Y-80444094D01*
X159196335Y-80444098D01*
X158982171Y-80543964D01*
X158982169Y-80543965D01*
X158788597Y-80679505D01*
X158621505Y-80846597D01*
X158491575Y-81032158D01*
X158436998Y-81075783D01*
X158367500Y-81082977D01*
X158305145Y-81051454D01*
X158288425Y-81032158D01*
X158158494Y-80846597D01*
X158156819Y-80844922D01*
X158156315Y-80844000D01*
X158155014Y-80842449D01*
X158155325Y-80842187D01*
X158123334Y-80783599D01*
X158120500Y-80757241D01*
X158120500Y-79354141D01*
X158140185Y-79287102D01*
X158192989Y-79241347D01*
X158201149Y-79237966D01*
X158212331Y-79233796D01*
X158239533Y-79213433D01*
X158255988Y-79201114D01*
X158327546Y-79147546D01*
X158413796Y-79032331D01*
X158462810Y-78900916D01*
X158504681Y-78844984D01*
X158570145Y-78820566D01*
X158638418Y-78835417D01*
X158666673Y-78856569D01*
X158788599Y-78978495D01*
X158865876Y-79032605D01*
X158982165Y-79114032D01*
X158982167Y-79114033D01*
X158982170Y-79114035D01*
X159196337Y-79213903D01*
X159424592Y-79275063D01*
X159592793Y-79289779D01*
X159659999Y-79295659D01*
X159660000Y-79295659D01*
X159660001Y-79295659D01*
X159699234Y-79292226D01*
X159895408Y-79275063D01*
X160123663Y-79213903D01*
X160337830Y-79114035D01*
X160531401Y-78978495D01*
X160698495Y-78811401D01*
X160828425Y-78625842D01*
X160883002Y-78582217D01*
X160952500Y-78575023D01*
X161014855Y-78606546D01*
X161031575Y-78625842D01*
X161161278Y-78811078D01*
X161161505Y-78811401D01*
X161328599Y-78978495D01*
X161405876Y-79032605D01*
X161522165Y-79114032D01*
X161522167Y-79114033D01*
X161522170Y-79114035D01*
X161736337Y-79213903D01*
X161964592Y-79275063D01*
X162132793Y-79289779D01*
X162199999Y-79295659D01*
X162200000Y-79295659D01*
X162200001Y-79295659D01*
X162239234Y-79292226D01*
X162435408Y-79275063D01*
X162663663Y-79213903D01*
X162877830Y-79114035D01*
X163071401Y-78978495D01*
X163238495Y-78811401D01*
X163368425Y-78625842D01*
X163423002Y-78582217D01*
X163492500Y-78575023D01*
X163554855Y-78606546D01*
X163571575Y-78625842D01*
X163701278Y-78811078D01*
X163701505Y-78811401D01*
X163868599Y-78978495D01*
X163945876Y-79032605D01*
X164062165Y-79114032D01*
X164062167Y-79114033D01*
X164062170Y-79114035D01*
X164276337Y-79213903D01*
X164504592Y-79275063D01*
X164672793Y-79289779D01*
X164739999Y-79295659D01*
X164740000Y-79295659D01*
X164740001Y-79295659D01*
X164779234Y-79292226D01*
X164975408Y-79275063D01*
X165203663Y-79213903D01*
X165417830Y-79114035D01*
X165611401Y-78978495D01*
X165778495Y-78811401D01*
X165908730Y-78625405D01*
X165963307Y-78581781D01*
X166032805Y-78574587D01*
X166095160Y-78606110D01*
G37*
%TD.AperFunction*%
%TA.AperFunction,Conductor*%
G36*
X166094855Y-76066546D02*
G01*
X166111575Y-76085842D01*
X166241281Y-76271082D01*
X166241505Y-76271401D01*
X166408599Y-76438495D01*
X166509240Y-76508965D01*
X166594594Y-76568730D01*
X166638219Y-76623307D01*
X166645413Y-76692805D01*
X166613890Y-76755160D01*
X166594595Y-76771880D01*
X166408922Y-76901890D01*
X166408920Y-76901891D01*
X166241891Y-77068920D01*
X166241890Y-77068922D01*
X166111880Y-77254595D01*
X166057303Y-77298219D01*
X165987804Y-77305412D01*
X165925450Y-77273890D01*
X165908730Y-77254594D01*
X165778494Y-77068597D01*
X165611402Y-76901506D01*
X165611396Y-76901501D01*
X165425842Y-76771575D01*
X165382217Y-76716998D01*
X165375023Y-76647500D01*
X165406546Y-76585145D01*
X165425842Y-76568425D01*
X165476998Y-76532605D01*
X165611401Y-76438495D01*
X165778495Y-76271401D01*
X165908425Y-76085842D01*
X165963002Y-76042217D01*
X166032500Y-76035023D01*
X166094855Y-76066546D01*
G37*
%TD.AperFunction*%
%TA.AperFunction,Conductor*%
G36*
X168634855Y-76066546D02*
G01*
X168651575Y-76085842D01*
X168781501Y-76271396D01*
X168781506Y-76271402D01*
X168948597Y-76438493D01*
X168948603Y-76438498D01*
X169134158Y-76568425D01*
X169177783Y-76623002D01*
X169184977Y-76692500D01*
X169153454Y-76754855D01*
X169134158Y-76771575D01*
X168948597Y-76901505D01*
X168781508Y-77068594D01*
X168651269Y-77254595D01*
X168596692Y-77298219D01*
X168527193Y-77305412D01*
X168464839Y-77273890D01*
X168448119Y-77254594D01*
X168318113Y-77068926D01*
X168318108Y-77068920D01*
X168151078Y-76901890D01*
X167965405Y-76771879D01*
X167921780Y-76717302D01*
X167914588Y-76647804D01*
X167946110Y-76585449D01*
X167965406Y-76568730D01*
X167966279Y-76568119D01*
X168151401Y-76438495D01*
X168318495Y-76271401D01*
X168448425Y-76085842D01*
X168503002Y-76042217D01*
X168572500Y-76035023D01*
X168634855Y-76066546D01*
G37*
%TD.AperFunction*%
%TA.AperFunction,Conductor*%
G36*
X163554549Y-76066110D02*
G01*
X163571269Y-76085405D01*
X163701505Y-76271401D01*
X163701506Y-76271402D01*
X163868597Y-76438493D01*
X163868603Y-76438498D01*
X164054158Y-76568425D01*
X164097783Y-76623002D01*
X164104977Y-76692500D01*
X164073454Y-76754855D01*
X164054158Y-76771575D01*
X163868597Y-76901505D01*
X163701505Y-77068597D01*
X163571575Y-77254158D01*
X163516998Y-77297783D01*
X163447500Y-77304977D01*
X163385145Y-77273454D01*
X163368425Y-77254158D01*
X163238494Y-77068597D01*
X163071402Y-76901506D01*
X163071401Y-76901505D01*
X162903844Y-76784180D01*
X162885405Y-76771269D01*
X162841781Y-76716692D01*
X162834588Y-76647193D01*
X162866110Y-76584839D01*
X162885405Y-76568119D01*
X163071082Y-76438105D01*
X163238105Y-76271082D01*
X163368119Y-76085405D01*
X163422696Y-76041781D01*
X163492195Y-76034588D01*
X163554549Y-76066110D01*
G37*
%TD.AperFunction*%
%TA.AperFunction,Conductor*%
G36*
X188064000Y-68824633D02*
G01*
X188277483Y-68767433D01*
X188277492Y-68767429D01*
X188491579Y-68667599D01*
X188561907Y-68618354D01*
X188628113Y-68596026D01*
X188695880Y-68613035D01*
X188743694Y-68663982D01*
X188756373Y-68732692D01*
X188750074Y-68760881D01*
X188738648Y-68793536D01*
X188726600Y-68818555D01*
X188681957Y-68889604D01*
X188664644Y-68911313D01*
X188605313Y-68970644D01*
X188583604Y-68987957D01*
X188512555Y-69032600D01*
X188487537Y-69044648D01*
X188408333Y-69072362D01*
X188381264Y-69078540D01*
X188301075Y-69087576D01*
X188290921Y-69088720D01*
X188277038Y-69089500D01*
X186889097Y-69089500D01*
X186822058Y-69069815D01*
X186776303Y-69017011D01*
X186766359Y-68947853D01*
X186795384Y-68884297D01*
X186801416Y-68877819D01*
X186804870Y-68874365D01*
X186990032Y-68689203D01*
X187051353Y-68655720D01*
X187121045Y-68660704D01*
X187131388Y-68665580D01*
X187131514Y-68665312D01*
X187350507Y-68767429D01*
X187350516Y-68767433D01*
X187564000Y-68824634D01*
X187564000Y-67927012D01*
X187621007Y-67959925D01*
X187748174Y-67994000D01*
X187879826Y-67994000D01*
X188006993Y-67959925D01*
X188064000Y-67927012D01*
X188064000Y-68824633D01*
G37*
%TD.AperFunction*%
%TD*%
M02*
