%TF.GenerationSoftware,KiCad,Pcbnew,8.0.3*%
%TF.CreationDate,2024-12-22T12:47:46-05:00*%
%TF.ProjectId,klipper_screen_riser,6b6c6970-7065-4725-9f73-637265656e5f,rev?*%
%TF.SameCoordinates,Original*%
%TF.FileFunction,Copper,L2,Bot*%
%TF.FilePolarity,Positive*%
%FSLAX46Y46*%
G04 Gerber Fmt 4.6, Leading zero omitted, Abs format (unit mm)*
G04 Created by KiCad (PCBNEW 8.0.3) date 2024-12-22 12:47:46*
%MOMM*%
%LPD*%
G01*
G04 APERTURE LIST*
%TA.AperFunction,ComponentPad*%
%ADD10O,2.270000X1.270000*%
%TD*%
%TA.AperFunction,ComponentPad*%
%ADD11R,2.270000X1.270000*%
%TD*%
%TA.AperFunction,ComponentPad*%
%ADD12O,1.700000X1.700000*%
%TD*%
%TA.AperFunction,ComponentPad*%
%ADD13R,1.700000X1.700000*%
%TD*%
%TA.AperFunction,Conductor*%
%ADD14C,0.254000*%
%TD*%
%TA.AperFunction,Conductor*%
%ADD15C,1.000000*%
%TD*%
G04 APERTURE END LIST*
D10*
%TO.P,SW1,3,3*%
%TO.N,unconnected-(SW1-Pad3)*%
X152740000Y-75937473D03*
%TO.P,SW1,2,2*%
%TO.N,Net-(J2-Pin_2)*%
X152740000Y-78437473D03*
D11*
%TO.P,SW1,1,1*%
%TO.N,+5V*%
X152740000Y-80937473D03*
%TD*%
D12*
%TO.P,J2,26,Pin_26*%
%TO.N,TP_CS*%
X187600000Y-75400000D03*
%TO.P,J2,25,Pin_25*%
%TO.N,GND*%
X187600000Y-77940000D03*
%TO.P,J2,24,Pin_24*%
%TO.N,LCD_CS*%
X185060000Y-75400000D03*
%TO.P,J2,23,Pin_23*%
%TO.N,LCD_SCK {slash} TP_SCK *%
X185060000Y-77940000D03*
%TO.P,J2,22,Pin_22*%
%TO.N,RST*%
X182520000Y-75400000D03*
%TO.P,J2,21,Pin_21*%
%TO.N,TP_SO*%
X182520000Y-77940000D03*
%TO.P,J2,20,Pin_20*%
%TO.N,GND*%
X179980000Y-75400000D03*
%TO.P,J2,19,Pin_19*%
%TO.N,LCD_SI {slash} TP_SI *%
X179980000Y-77940000D03*
%TO.P,J2,18,Pin_18*%
%TO.N,LCD_RS *%
X177440000Y-75400000D03*
%TO.P,J2,17,Pin_17*%
%TO.N,+3.3V*%
X177440000Y-77940000D03*
%TO.P,J2,16,Pin_16*%
%TO.N,unconnected-(J2-Pin_16-Pad16)*%
X174900000Y-75400000D03*
%TO.P,J2,15,Pin_15*%
%TO.N,unconnected-(J2-Pin_15-Pad15)*%
X174900000Y-77940000D03*
%TO.P,J2,14,Pin_14*%
%TO.N,GND*%
X172360000Y-75400000D03*
%TO.P,J2,13,Pin_13*%
%TO.N,unconnected-(J2-Pin_13-Pad13)*%
X172360000Y-77940000D03*
%TO.P,J2,12,Pin_12*%
%TO.N,unconnected-(J2-Pin_12-Pad12)*%
X169820000Y-75400000D03*
%TO.P,J2,11,Pin_11*%
%TO.N,TP_IRQ *%
X169820000Y-77940000D03*
%TO.P,J2,10,Pin_10*%
%TO.N,unconnected-(J2-Pin_10-Pad10)*%
X167280000Y-75400000D03*
%TO.P,J2,9,Pin_9*%
%TO.N,GND*%
X167280000Y-77940000D03*
%TO.P,J2,8,Pin_8*%
%TO.N,unconnected-(J2-Pin_8-Pad8)*%
X164740000Y-75400000D03*
%TO.P,J2,7,Pin_7*%
%TO.N,unconnected-(J2-Pin_7-Pad7)*%
X164740000Y-77940000D03*
%TO.P,J2,6,Pin_6*%
%TO.N,GND*%
X162200000Y-75400000D03*
%TO.P,J2,5,Pin_5*%
%TO.N,unconnected-(J2-Pin_5-Pad5)*%
X162200000Y-77940000D03*
%TO.P,J2,4,Pin_4*%
%TO.N,Net-(J2-Pin_2)*%
X159660000Y-75400000D03*
%TO.P,J2,3,Pin_3*%
%TO.N,unconnected-(J2-Pin_3-Pad3)*%
X159660000Y-77940000D03*
%TO.P,J2,2,Pin_2*%
%TO.N,Net-(J2-Pin_2)*%
X157120000Y-75400000D03*
D13*
%TO.P,J2,1,Pin_1*%
%TO.N,+3.3V*%
X157120000Y-77940000D03*
%TD*%
D12*
%TO.P,J5,13,Pin_13*%
%TO.N,GND*%
X187814000Y-67494000D03*
%TO.P,J5,12,Pin_12*%
%TO.N,LCD_SCK {slash} TP_SCK *%
X185274000Y-67494000D03*
%TO.P,J5,11,Pin_11*%
%TO.N,TP_SO*%
X182734000Y-67494000D03*
%TO.P,J5,10,Pin_10*%
%TO.N,LCD_SI {slash} TP_SI *%
X180194000Y-67494000D03*
%TO.P,J5,9,Pin_9*%
%TO.N,+3.3V*%
X177654000Y-67494000D03*
%TO.P,J5,8,Pin_8*%
%TO.N,unconnected-(J5-Pin_8-Pad8)*%
X175114000Y-67494000D03*
%TO.P,J5,7,Pin_7*%
%TO.N,unconnected-(J5-Pin_7-Pad7)*%
X172574000Y-67494000D03*
%TO.P,J5,6,Pin_6*%
%TO.N,TP_IRQ *%
X170034000Y-67494000D03*
%TO.P,J5,5,Pin_5*%
%TO.N,GND*%
X167494000Y-67494000D03*
%TO.P,J5,4,Pin_4*%
%TO.N,unconnected-(J5-Pin_4-Pad4)*%
X164954000Y-67494000D03*
%TO.P,J5,3,Pin_3*%
%TO.N,unconnected-(J5-Pin_3-Pad3)*%
X162414000Y-67494000D03*
%TO.P,J5,2,Pin_2*%
%TO.N,unconnected-(J5-Pin_2-Pad2)*%
X159874000Y-67494000D03*
D13*
%TO.P,J5,1,Pin_1*%
%TO.N,+3.3V*%
X157334000Y-67494000D03*
%TD*%
D12*
%TO.P,J4,2,Pin_2*%
%TO.N,+5V*%
X157334000Y-64954000D03*
D13*
%TO.P,J4,1,Pin_1*%
X159874000Y-64954000D03*
%TD*%
D12*
%TO.P,J3,11,Pin_11*%
%TO.N,+3.3V*%
X157120000Y-81718000D03*
%TO.P,J3,10,Pin_10*%
%TO.N,+5V*%
X159660000Y-81718000D03*
%TO.P,J3,9,Pin_9*%
%TO.N,GND*%
X162200000Y-81718000D03*
%TO.P,J3,8,Pin_8*%
%TO.N,TP_IRQ *%
X164740000Y-81718000D03*
%TO.P,J3,7,Pin_7*%
%TO.N,LCD_RS *%
X167280000Y-81718000D03*
%TO.P,J3,6,Pin_6*%
%TO.N,LCD_SI {slash} TP_SI *%
X169820000Y-81718000D03*
%TO.P,J3,5,Pin_5*%
%TO.N,TP_SO*%
X172360000Y-81718000D03*
%TO.P,J3,4,Pin_4*%
%TO.N,RST*%
X174900000Y-81718000D03*
%TO.P,J3,3,Pin_3*%
%TO.N,LCD_SCK {slash} TP_SCK *%
X177440000Y-81718000D03*
%TO.P,J3,2,Pin_2*%
%TO.N,LCD_CS*%
X179980000Y-81718000D03*
D13*
%TO.P,J3,1,Pin_1*%
%TO.N,TP_CS*%
X182520000Y-81718000D03*
%TD*%
D12*
%TO.P,J6,5,Pin_5*%
%TO.N,LCD_RS *%
X177672000Y-64954000D03*
%TO.P,J6,4,Pin_4*%
%TO.N,GND*%
X180212000Y-64954000D03*
%TO.P,J6,3,Pin_3*%
%TO.N,RST*%
X182752000Y-64954000D03*
%TO.P,J6,2,Pin_2*%
%TO.N,LCD_CS*%
X185292000Y-64954000D03*
D13*
%TO.P,J6,1,Pin_1*%
%TO.N,TP_CS*%
X187832000Y-64954000D03*
%TD*%
D12*
%TO.P,J1,11,Pin_11*%
%TO.N,+3.3V*%
X157352000Y-71558000D03*
%TO.P,J1,10,Pin_10*%
%TO.N,+5V*%
X159892000Y-71558000D03*
%TO.P,J1,9,Pin_9*%
%TO.N,GND*%
X162432000Y-71558000D03*
%TO.P,J1,8,Pin_8*%
%TO.N,TP_IRQ *%
X164972000Y-71558000D03*
%TO.P,J1,7,Pin_7*%
%TO.N,LCD_RS *%
X167512000Y-71558000D03*
%TO.P,J1,6,Pin_6*%
%TO.N,LCD_SI {slash} TP_SI *%
X170052000Y-71558000D03*
%TO.P,J1,5,Pin_5*%
%TO.N,TP_SO*%
X172592000Y-71558000D03*
%TO.P,J1,4,Pin_4*%
%TO.N,RST*%
X175132000Y-71558000D03*
%TO.P,J1,3,Pin_3*%
%TO.N,LCD_SCK {slash} TP_SCK *%
X177672000Y-71558000D03*
%TO.P,J1,2,Pin_2*%
%TO.N,LCD_CS*%
X180212000Y-71558000D03*
D13*
%TO.P,J1,1,Pin_1*%
%TO.N,TP_CS*%
X182752000Y-71558000D03*
%TD*%
D14*
%TO.N,TP_SO*%
X177432555Y-79117000D02*
X176008555Y-80541000D01*
X174138000Y-70012000D02*
X172592000Y-71558000D01*
X182520000Y-77940000D02*
X181343000Y-79117000D01*
X182734000Y-67494000D02*
X180702000Y-69526000D01*
X178804053Y-69526000D02*
X178318053Y-70012000D01*
X178318053Y-70012000D02*
X174138000Y-70012000D01*
X180702000Y-69526000D02*
X178804053Y-69526000D01*
X173537000Y-80541000D02*
X172360000Y-81718000D01*
X181343000Y-79117000D02*
X177432555Y-79117000D01*
X176008555Y-80541000D02*
X173537000Y-80541000D01*
D15*
%TO.N,+3.3V*%
X175694000Y-79686000D02*
X158866000Y-79686000D01*
X177440000Y-77940000D02*
X175694000Y-79686000D01*
X158866000Y-79686000D02*
X157120000Y-77940000D01*
D14*
%TO.N,LCD_SCK {slash} TP_SCK *%
X179472000Y-79686000D02*
X177440000Y-81718000D01*
X182788000Y-69980000D02*
X185274000Y-67494000D01*
X177672000Y-71558000D02*
X179250000Y-69980000D01*
X183314000Y-79686000D02*
X179472000Y-79686000D01*
X185060000Y-77940000D02*
X183314000Y-79686000D01*
X177672000Y-71558000D02*
X178180000Y-71558000D01*
X179250000Y-69980000D02*
X182788000Y-69980000D01*
%TO.N,LCD_SI {slash} TP_SI *%
X172052000Y-69558000D02*
X170052000Y-71558000D01*
X178130000Y-69558000D02*
X172052000Y-69558000D01*
X180194000Y-67494000D02*
X178130000Y-69558000D01*
%TO.N,LCD_RS *%
X175502431Y-65058000D02*
X173864156Y-66696275D01*
X173081448Y-68760565D02*
X170309435Y-68760565D01*
X173864156Y-67977857D02*
X173081448Y-68760565D01*
X170309435Y-68760565D02*
X167512000Y-71558000D01*
X177603032Y-65058000D02*
X175502431Y-65058000D01*
X173864156Y-66696275D02*
X173864156Y-67977857D01*
D15*
%TO.N,+5V*%
X156102383Y-65058000D02*
X155558000Y-65602383D01*
X156336000Y-69272000D02*
X157606000Y-69272000D01*
X155558000Y-68494000D02*
X156336000Y-69272000D01*
X155558000Y-65602383D02*
X155558000Y-68494000D01*
X157334000Y-64954000D02*
X159874000Y-64954000D01*
X157304464Y-65058000D02*
X156102383Y-65058000D01*
X157606000Y-69272000D02*
X159892000Y-71558000D01*
D14*
%TO.N,TP_IRQ *%
X168815595Y-68735000D02*
X167795000Y-68735000D01*
X167795000Y-68735000D02*
X164972000Y-71558000D01*
X169992595Y-67558000D02*
X168815595Y-68735000D01*
%TO.N,GND*%
X179980000Y-75400000D02*
X178803000Y-76577000D01*
X165898000Y-69090000D02*
X165740000Y-69090000D01*
X180212000Y-64954000D02*
X181389000Y-66131000D01*
X178803000Y-76577000D02*
X173537000Y-76577000D01*
X173537000Y-76577000D02*
X172360000Y-75400000D01*
X167494000Y-67494000D02*
X165898000Y-69090000D01*
X181389000Y-66131000D02*
X186451000Y-66131000D01*
X186451000Y-66131000D02*
X187814000Y-67494000D01*
%TD*%
%TA.AperFunction,Conductor*%
%TO.N,GND*%
G36*
X154182400Y-74110185D02*
G01*
X154203033Y-74126810D01*
X154203104Y-74126881D01*
X154203110Y-74126886D01*
X154203112Y-74126888D01*
X154336042Y-74232896D01*
X154336045Y-74232897D01*
X154336046Y-74232898D01*
X154489223Y-74306664D01*
X154489224Y-74306664D01*
X154489228Y-74306666D01*
X154654988Y-74344500D01*
X154825012Y-74344500D01*
X154990772Y-74306666D01*
X155143958Y-74232896D01*
X155163774Y-74217092D01*
X155228461Y-74190684D01*
X155297156Y-74203441D01*
X155307057Y-74209045D01*
X155410563Y-74274082D01*
X155522417Y-74313221D01*
X155571048Y-74330238D01*
X155739997Y-74349274D01*
X155740000Y-74349274D01*
X155740003Y-74349274D01*
X155872602Y-74334333D01*
X155908954Y-74330237D01*
X155966720Y-74310023D01*
X156036498Y-74306461D01*
X156097126Y-74341190D01*
X156129353Y-74403183D01*
X156122949Y-74472758D01*
X156095359Y-74514744D01*
X156081504Y-74528599D01*
X155945965Y-74722169D01*
X155945964Y-74722171D01*
X155846098Y-74936335D01*
X155846094Y-74936344D01*
X155784938Y-75164586D01*
X155784936Y-75164596D01*
X155764341Y-75399999D01*
X155764341Y-75400000D01*
X155784936Y-75635403D01*
X155784938Y-75635413D01*
X155846094Y-75863655D01*
X155846096Y-75863659D01*
X155846097Y-75863663D01*
X155925801Y-76034588D01*
X155945965Y-76077830D01*
X155945967Y-76077834D01*
X156033869Y-76203370D01*
X156081504Y-76271400D01*
X156081506Y-76271402D01*
X156203430Y-76393326D01*
X156236915Y-76454649D01*
X156231931Y-76524341D01*
X156190059Y-76580274D01*
X156159083Y-76597189D01*
X156027669Y-76646203D01*
X156027664Y-76646206D01*
X155912455Y-76732452D01*
X155912452Y-76732455D01*
X155826206Y-76847664D01*
X155826202Y-76847671D01*
X155775908Y-76982517D01*
X155769501Y-77042116D01*
X155769500Y-77042135D01*
X155769500Y-78837870D01*
X155769501Y-78837876D01*
X155775908Y-78897483D01*
X155826202Y-79032328D01*
X155826206Y-79032335D01*
X155912452Y-79147544D01*
X155912455Y-79147547D01*
X156027664Y-79233793D01*
X156027671Y-79233797D01*
X156162517Y-79284091D01*
X156162516Y-79284091D01*
X156169444Y-79284835D01*
X156222127Y-79290500D01*
X157004217Y-79290499D01*
X157071256Y-79310183D01*
X157091898Y-79326818D01*
X158085735Y-80320655D01*
X158085764Y-80320686D01*
X158228217Y-80463139D01*
X158392080Y-80572628D01*
X158392086Y-80572632D01*
X158483844Y-80610639D01*
X158483847Y-80610640D01*
X158483848Y-80610641D01*
X158520117Y-80625664D01*
X158574164Y-80648051D01*
X158574165Y-80648051D01*
X158576683Y-80649094D01*
X158631087Y-80692934D01*
X158653152Y-80759228D01*
X158635873Y-80826928D01*
X158624231Y-80843349D01*
X158621504Y-80846599D01*
X158491575Y-81032158D01*
X158436998Y-81075783D01*
X158367500Y-81082977D01*
X158305145Y-81051454D01*
X158288425Y-81032158D01*
X158158494Y-80846597D01*
X157991402Y-80679506D01*
X157991395Y-80679501D01*
X157797834Y-80543967D01*
X157797830Y-80543965D01*
X157788328Y-80539534D01*
X157583663Y-80444097D01*
X157583659Y-80444096D01*
X157583655Y-80444094D01*
X157355413Y-80382938D01*
X157355403Y-80382936D01*
X157120001Y-80362341D01*
X157119999Y-80362341D01*
X156884596Y-80382936D01*
X156884586Y-80382938D01*
X156656344Y-80444094D01*
X156656335Y-80444098D01*
X156442171Y-80543964D01*
X156442169Y-80543965D01*
X156248597Y-80679505D01*
X156081505Y-80846597D01*
X155945965Y-81040169D01*
X155945964Y-81040171D01*
X155846098Y-81254335D01*
X155846094Y-81254344D01*
X155784938Y-81482586D01*
X155784936Y-81482596D01*
X155764341Y-81717999D01*
X155764341Y-81718000D01*
X155784936Y-81953403D01*
X155784938Y-81953413D01*
X155846094Y-82181655D01*
X155846096Y-82181659D01*
X155846097Y-82181663D01*
X155925801Y-82352588D01*
X155945965Y-82395830D01*
X155945967Y-82395834D01*
X156038952Y-82528629D01*
X156081505Y-82589401D01*
X156248599Y-82756495D01*
X156345384Y-82824265D01*
X156442165Y-82892032D01*
X156442167Y-82892033D01*
X156442170Y-82892035D01*
X156656337Y-82991903D01*
X156884592Y-83053063D01*
X157061034Y-83068500D01*
X157119999Y-83073659D01*
X157120000Y-83073659D01*
X157120001Y-83073659D01*
X157178966Y-83068500D01*
X157355408Y-83053063D01*
X157583663Y-82991903D01*
X157797830Y-82892035D01*
X157991401Y-82756495D01*
X158158495Y-82589401D01*
X158288425Y-82403842D01*
X158343002Y-82360217D01*
X158412500Y-82353023D01*
X158474855Y-82384546D01*
X158491575Y-82403842D01*
X158621500Y-82589395D01*
X158621505Y-82589401D01*
X158788599Y-82756495D01*
X158885384Y-82824265D01*
X158982165Y-82892032D01*
X158982167Y-82892033D01*
X158982170Y-82892035D01*
X159196337Y-82991903D01*
X159424592Y-83053063D01*
X159601034Y-83068500D01*
X159659999Y-83073659D01*
X159660000Y-83073659D01*
X159660001Y-83073659D01*
X159718966Y-83068500D01*
X159895408Y-83053063D01*
X160123663Y-82991903D01*
X160337830Y-82892035D01*
X160531401Y-82756495D01*
X160698495Y-82589401D01*
X160828730Y-82403405D01*
X160883307Y-82359781D01*
X160952805Y-82352587D01*
X161015160Y-82384110D01*
X161031879Y-82403405D01*
X161161890Y-82589078D01*
X161328917Y-82756105D01*
X161522421Y-82891600D01*
X161736507Y-82991429D01*
X161736516Y-82991433D01*
X161950000Y-83048634D01*
X161950000Y-82151012D01*
X162007007Y-82183925D01*
X162134174Y-82218000D01*
X162265826Y-82218000D01*
X162392993Y-82183925D01*
X162450000Y-82151012D01*
X162450000Y-83048633D01*
X162663483Y-82991433D01*
X162663492Y-82991429D01*
X162877578Y-82891600D01*
X163071082Y-82756105D01*
X163238105Y-82589082D01*
X163368119Y-82403405D01*
X163422696Y-82359781D01*
X163492195Y-82352588D01*
X163554549Y-82384110D01*
X163571269Y-82403405D01*
X163701505Y-82589401D01*
X163868599Y-82756495D01*
X163965384Y-82824265D01*
X164062165Y-82892032D01*
X164062167Y-82892033D01*
X164062170Y-82892035D01*
X164276337Y-82991903D01*
X164504592Y-83053063D01*
X164681034Y-83068500D01*
X164739999Y-83073659D01*
X164740000Y-83073659D01*
X164740001Y-83073659D01*
X164798966Y-83068500D01*
X164975408Y-83053063D01*
X165203663Y-82991903D01*
X165417830Y-82892035D01*
X165611401Y-82756495D01*
X165778495Y-82589401D01*
X165908425Y-82403842D01*
X165963002Y-82360217D01*
X166032500Y-82353023D01*
X166094855Y-82384546D01*
X166111575Y-82403842D01*
X166241500Y-82589395D01*
X166241505Y-82589401D01*
X166408599Y-82756495D01*
X166505384Y-82824265D01*
X166602165Y-82892032D01*
X166602167Y-82892033D01*
X166602170Y-82892035D01*
X166816337Y-82991903D01*
X167044592Y-83053063D01*
X167221034Y-83068500D01*
X167279999Y-83073659D01*
X167280000Y-83073659D01*
X167280001Y-83073659D01*
X167338966Y-83068500D01*
X167515408Y-83053063D01*
X167743663Y-82991903D01*
X167957830Y-82892035D01*
X168151401Y-82756495D01*
X168318495Y-82589401D01*
X168448425Y-82403842D01*
X168503002Y-82360217D01*
X168572500Y-82353023D01*
X168634855Y-82384546D01*
X168651575Y-82403842D01*
X168781500Y-82589395D01*
X168781505Y-82589401D01*
X168948599Y-82756495D01*
X169045384Y-82824265D01*
X169142165Y-82892032D01*
X169142167Y-82892033D01*
X169142170Y-82892035D01*
X169356337Y-82991903D01*
X169584592Y-83053063D01*
X169761034Y-83068500D01*
X169819999Y-83073659D01*
X169820000Y-83073659D01*
X169820001Y-83073659D01*
X169878966Y-83068500D01*
X170055408Y-83053063D01*
X170283663Y-82991903D01*
X170497830Y-82892035D01*
X170691401Y-82756495D01*
X170858495Y-82589401D01*
X170988425Y-82403842D01*
X171043002Y-82360217D01*
X171112500Y-82353023D01*
X171174855Y-82384546D01*
X171191575Y-82403842D01*
X171321500Y-82589395D01*
X171321505Y-82589401D01*
X171488599Y-82756495D01*
X171585384Y-82824265D01*
X171682165Y-82892032D01*
X171682167Y-82892033D01*
X171682170Y-82892035D01*
X171896337Y-82991903D01*
X172124592Y-83053063D01*
X172301034Y-83068500D01*
X172359999Y-83073659D01*
X172360000Y-83073659D01*
X172360001Y-83073659D01*
X172418966Y-83068500D01*
X172595408Y-83053063D01*
X172823663Y-82991903D01*
X173037830Y-82892035D01*
X173231401Y-82756495D01*
X173398495Y-82589401D01*
X173528425Y-82403842D01*
X173583002Y-82360217D01*
X173652500Y-82353023D01*
X173714855Y-82384546D01*
X173731575Y-82403842D01*
X173861500Y-82589395D01*
X173861505Y-82589401D01*
X174028599Y-82756495D01*
X174125384Y-82824265D01*
X174222165Y-82892032D01*
X174222167Y-82892033D01*
X174222170Y-82892035D01*
X174436337Y-82991903D01*
X174664592Y-83053063D01*
X174841034Y-83068500D01*
X174899999Y-83073659D01*
X174900000Y-83073659D01*
X174900001Y-83073659D01*
X174958966Y-83068500D01*
X175135408Y-83053063D01*
X175363663Y-82991903D01*
X175577830Y-82892035D01*
X175771401Y-82756495D01*
X175938495Y-82589401D01*
X176068425Y-82403842D01*
X176123002Y-82360217D01*
X176192500Y-82353023D01*
X176254855Y-82384546D01*
X176271575Y-82403842D01*
X176401500Y-82589395D01*
X176401505Y-82589401D01*
X176568599Y-82756495D01*
X176665384Y-82824265D01*
X176762165Y-82892032D01*
X176762167Y-82892033D01*
X176762170Y-82892035D01*
X176976337Y-82991903D01*
X177204592Y-83053063D01*
X177381034Y-83068500D01*
X177439999Y-83073659D01*
X177440000Y-83073659D01*
X177440001Y-83073659D01*
X177498966Y-83068500D01*
X177675408Y-83053063D01*
X177903663Y-82991903D01*
X178117830Y-82892035D01*
X178311401Y-82756495D01*
X178478495Y-82589401D01*
X178608425Y-82403842D01*
X178663002Y-82360217D01*
X178732500Y-82353023D01*
X178794855Y-82384546D01*
X178811575Y-82403842D01*
X178941500Y-82589395D01*
X178941505Y-82589401D01*
X179108599Y-82756495D01*
X179205384Y-82824265D01*
X179302165Y-82892032D01*
X179302167Y-82892033D01*
X179302170Y-82892035D01*
X179516337Y-82991903D01*
X179744592Y-83053063D01*
X179921034Y-83068500D01*
X179979999Y-83073659D01*
X179980000Y-83073659D01*
X179980001Y-83073659D01*
X180038966Y-83068500D01*
X180215408Y-83053063D01*
X180443663Y-82991903D01*
X180657830Y-82892035D01*
X180851401Y-82756495D01*
X180973329Y-82634566D01*
X181034648Y-82601084D01*
X181104340Y-82606068D01*
X181160274Y-82647939D01*
X181177189Y-82678917D01*
X181226202Y-82810328D01*
X181226206Y-82810335D01*
X181312452Y-82925544D01*
X181312455Y-82925547D01*
X181427664Y-83011793D01*
X181427671Y-83011797D01*
X181562517Y-83062091D01*
X181562516Y-83062091D01*
X181569444Y-83062835D01*
X181622127Y-83068500D01*
X183417872Y-83068499D01*
X183477483Y-83062091D01*
X183612331Y-83011796D01*
X183727546Y-82925546D01*
X183813796Y-82810331D01*
X183864091Y-82675483D01*
X183870500Y-82615873D01*
X183870499Y-80820128D01*
X183864091Y-80760517D01*
X183863877Y-80759944D01*
X183813797Y-80625671D01*
X183813793Y-80625664D01*
X183727547Y-80510455D01*
X183727544Y-80510452D01*
X183623548Y-80432600D01*
X183581677Y-80376666D01*
X183576693Y-80306975D01*
X183610179Y-80245652D01*
X183628961Y-80230237D01*
X183714008Y-80173411D01*
X183801411Y-80086008D01*
X184606584Y-79280833D01*
X184667905Y-79247350D01*
X184726356Y-79248741D01*
X184768107Y-79259928D01*
X184824592Y-79275063D01*
X185001034Y-79290500D01*
X185059999Y-79295659D01*
X185060000Y-79295659D01*
X185060001Y-79295659D01*
X185118966Y-79290500D01*
X185295408Y-79275063D01*
X185523663Y-79213903D01*
X185737830Y-79114035D01*
X185931401Y-78978495D01*
X186098495Y-78811401D01*
X186228730Y-78625405D01*
X186283307Y-78581781D01*
X186352805Y-78574587D01*
X186415160Y-78606110D01*
X186431879Y-78625405D01*
X186561890Y-78811078D01*
X186728917Y-78978105D01*
X186922421Y-79113600D01*
X187136507Y-79213429D01*
X187136516Y-79213433D01*
X187350000Y-79270634D01*
X187350000Y-78373012D01*
X187407007Y-78405925D01*
X187534174Y-78440000D01*
X187665826Y-78440000D01*
X187792993Y-78405925D01*
X187850000Y-78373012D01*
X187850000Y-79270633D01*
X188063483Y-79213433D01*
X188063492Y-79213429D01*
X188277578Y-79113600D01*
X188471082Y-78978105D01*
X188527819Y-78921369D01*
X188589142Y-78887884D01*
X188658834Y-78892868D01*
X188714767Y-78934740D01*
X188739184Y-79000204D01*
X188739500Y-79009050D01*
X188739500Y-81171887D01*
X188719815Y-81238926D01*
X188667011Y-81284681D01*
X188597853Y-81294625D01*
X188534297Y-81265600D01*
X188514196Y-81243395D01*
X188449191Y-81151304D01*
X188429710Y-81130445D01*
X188253053Y-80941292D01*
X188030147Y-80759945D01*
X188030146Y-80759944D01*
X187784617Y-80610634D01*
X187521063Y-80496158D01*
X187521061Y-80496157D01*
X187521058Y-80496156D01*
X187374694Y-80455147D01*
X187244364Y-80418630D01*
X187244359Y-80418629D01*
X187244358Y-80418629D01*
X187102018Y-80399064D01*
X186959679Y-80379500D01*
X186959678Y-80379500D01*
X186672322Y-80379500D01*
X186672321Y-80379500D01*
X186387642Y-80418629D01*
X186387635Y-80418630D01*
X186179861Y-80476845D01*
X186110942Y-80496156D01*
X186110939Y-80496156D01*
X186110936Y-80496158D01*
X186110935Y-80496158D01*
X185847382Y-80610634D01*
X185601853Y-80759944D01*
X185378950Y-80941289D01*
X185182812Y-81151299D01*
X185017098Y-81386064D01*
X184884894Y-81641206D01*
X184788667Y-81911962D01*
X184788666Y-81911965D01*
X184730201Y-82193319D01*
X184710592Y-82480000D01*
X184730201Y-82766680D01*
X184730201Y-82766684D01*
X184730202Y-82766686D01*
X184739272Y-82810335D01*
X184788666Y-83048034D01*
X184788667Y-83048037D01*
X184884894Y-83318793D01*
X184884893Y-83318793D01*
X185017098Y-83573935D01*
X185104190Y-83697317D01*
X185182811Y-83808698D01*
X185220705Y-83849272D01*
X185250209Y-83880863D01*
X185281580Y-83943294D01*
X185274220Y-84012775D01*
X185230463Y-84067246D01*
X185164203Y-84089414D01*
X185159585Y-84089500D01*
X156287227Y-84089500D01*
X156282763Y-84089420D01*
X156282596Y-84089414D01*
X156263377Y-84088721D01*
X156184246Y-84085871D01*
X156184238Y-84085871D01*
X155965923Y-84110001D01*
X155965906Y-84110005D01*
X155753411Y-84165660D01*
X155551276Y-84251652D01*
X155363822Y-84366143D01*
X155363817Y-84366147D01*
X155195010Y-84506714D01*
X155060953Y-84656404D01*
X155001565Y-84693212D01*
X154931704Y-84692069D01*
X154873552Y-84653338D01*
X154845571Y-84589316D01*
X154844870Y-84582141D01*
X154830095Y-84366143D01*
X154825798Y-84303314D01*
X154767334Y-84021968D01*
X154766175Y-84018708D01*
X154671105Y-83751206D01*
X154671106Y-83751206D01*
X154538901Y-83496064D01*
X154373187Y-83261299D01*
X154294554Y-83177105D01*
X154177053Y-83051292D01*
X153954147Y-82869945D01*
X153954146Y-82869944D01*
X153708617Y-82720634D01*
X153445063Y-82606158D01*
X153445061Y-82606157D01*
X153445058Y-82606156D01*
X153315578Y-82569877D01*
X153168364Y-82528630D01*
X153168359Y-82528629D01*
X153168358Y-82528629D01*
X152897800Y-82491441D01*
X152883679Y-82489500D01*
X152883678Y-82489500D01*
X152596322Y-82489500D01*
X152596321Y-82489500D01*
X152311642Y-82528629D01*
X152311635Y-82528630D01*
X152103861Y-82586845D01*
X152034942Y-82606156D01*
X152034939Y-82606156D01*
X152034936Y-82606158D01*
X152034935Y-82606158D01*
X151771382Y-82720634D01*
X151525853Y-82869944D01*
X151302950Y-83051289D01*
X151302947Y-83051291D01*
X151302947Y-83051292D01*
X151287362Y-83067979D01*
X151106808Y-83261304D01*
X150965804Y-83461063D01*
X150911063Y-83504481D01*
X150841537Y-83511410D01*
X150779303Y-83479652D01*
X150744117Y-83419288D01*
X150740500Y-83389555D01*
X150740500Y-75848107D01*
X151104500Y-75848107D01*
X151104500Y-76026838D01*
X151132460Y-76203371D01*
X151132460Y-76203374D01*
X151187689Y-76373351D01*
X151187691Y-76373354D01*
X151268833Y-76532605D01*
X151373889Y-76677201D01*
X151500272Y-76803584D01*
X151644868Y-76908640D01*
X151804119Y-76989782D01*
X151804121Y-76989783D01*
X151866522Y-77010058D01*
X151974103Y-77045013D01*
X152100295Y-77065000D01*
X152163430Y-77094929D01*
X152200361Y-77154241D01*
X152199363Y-77224103D01*
X152160753Y-77282336D01*
X152100295Y-77309946D01*
X151974101Y-77329933D01*
X151974098Y-77329933D01*
X151804121Y-77385162D01*
X151804118Y-77385164D01*
X151644867Y-77466306D01*
X151500270Y-77571363D01*
X151373890Y-77697743D01*
X151268833Y-77842340D01*
X151187691Y-78001591D01*
X151187689Y-78001594D01*
X151132460Y-78171571D01*
X151132460Y-78171574D01*
X151104500Y-78348107D01*
X151104500Y-78526838D01*
X151132460Y-78703371D01*
X151132460Y-78703374D01*
X151187689Y-78873351D01*
X151187691Y-78873354D01*
X151268833Y-79032605D01*
X151373889Y-79177201D01*
X151500272Y-79303584D01*
X151644868Y-79408640D01*
X151804119Y-79489782D01*
X151804121Y-79489783D01*
X151943870Y-79535189D01*
X151974103Y-79545013D01*
X152040322Y-79555501D01*
X152103453Y-79585428D01*
X152140385Y-79644739D01*
X152139388Y-79714602D01*
X152100778Y-79772835D01*
X152036815Y-79800950D01*
X152020921Y-79801973D01*
X151557129Y-79801973D01*
X151557123Y-79801974D01*
X151497516Y-79808381D01*
X151362671Y-79858675D01*
X151362664Y-79858679D01*
X151247455Y-79944925D01*
X151247452Y-79944928D01*
X151161206Y-80060137D01*
X151161202Y-80060144D01*
X151110908Y-80194990D01*
X151105462Y-80245652D01*
X151104501Y-80254596D01*
X151104500Y-80254608D01*
X151104500Y-81620343D01*
X151104501Y-81620349D01*
X151110908Y-81679956D01*
X151161202Y-81814801D01*
X151161206Y-81814808D01*
X151247452Y-81930017D01*
X151247455Y-81930020D01*
X151362664Y-82016266D01*
X151362671Y-82016270D01*
X151497517Y-82066564D01*
X151497516Y-82066564D01*
X151504444Y-82067308D01*
X151557127Y-82072973D01*
X153922872Y-82072972D01*
X153982483Y-82066564D01*
X154117331Y-82016269D01*
X154232546Y-81930019D01*
X154318796Y-81814804D01*
X154369091Y-81679956D01*
X154375500Y-81620346D01*
X154375499Y-80254601D01*
X154369091Y-80194990D01*
X154361042Y-80173410D01*
X154318797Y-80060144D01*
X154318793Y-80060137D01*
X154232547Y-79944928D01*
X154232544Y-79944925D01*
X154117335Y-79858679D01*
X154117328Y-79858675D01*
X153982482Y-79808381D01*
X153982483Y-79808381D01*
X153922883Y-79801974D01*
X153922881Y-79801973D01*
X153922873Y-79801973D01*
X153922865Y-79801973D01*
X153459082Y-79801973D01*
X153392043Y-79782288D01*
X153346288Y-79729484D01*
X153336344Y-79660326D01*
X153365369Y-79596770D01*
X153424147Y-79558996D01*
X153439685Y-79555500D01*
X153505897Y-79545013D01*
X153505898Y-79545012D01*
X153505901Y-79545012D01*
X153675878Y-79489783D01*
X153675878Y-79489782D01*
X153675881Y-79489782D01*
X153835132Y-79408640D01*
X153979728Y-79303584D01*
X154106111Y-79177201D01*
X154211167Y-79032605D01*
X154292309Y-78873354D01*
X154292310Y-78873351D01*
X154347539Y-78703374D01*
X154347539Y-78703373D01*
X154347540Y-78703370D01*
X154375500Y-78526839D01*
X154375500Y-78348107D01*
X154347540Y-78171576D01*
X154347539Y-78171572D01*
X154347539Y-78171571D01*
X154292310Y-78001594D01*
X154292308Y-78001591D01*
X154227387Y-77874174D01*
X154211167Y-77842341D01*
X154106111Y-77697745D01*
X153979728Y-77571362D01*
X153835132Y-77466306D01*
X153675881Y-77385164D01*
X153675878Y-77385162D01*
X153505900Y-77329933D01*
X153413904Y-77315362D01*
X153379703Y-77309945D01*
X153316569Y-77280017D01*
X153279638Y-77220705D01*
X153280636Y-77150843D01*
X153319246Y-77092610D01*
X153379703Y-77065000D01*
X153505897Y-77045013D01*
X153505900Y-77045012D01*
X153505901Y-77045012D01*
X153675878Y-76989783D01*
X153675878Y-76989782D01*
X153675881Y-76989782D01*
X153835132Y-76908640D01*
X153979728Y-76803584D01*
X154106111Y-76677201D01*
X154211167Y-76532605D01*
X154292309Y-76373354D01*
X154325435Y-76271402D01*
X154347539Y-76203374D01*
X154347539Y-76203373D01*
X154347540Y-76203370D01*
X154375500Y-76026839D01*
X154375500Y-75848107D01*
X154347540Y-75671576D01*
X154347539Y-75671572D01*
X154347539Y-75671571D01*
X154292310Y-75501594D01*
X154292308Y-75501591D01*
X154240546Y-75400000D01*
X154211167Y-75342341D01*
X154106111Y-75197745D01*
X153979728Y-75071362D01*
X153835132Y-74966306D01*
X153675881Y-74885164D01*
X153675878Y-74885162D01*
X153505899Y-74829933D01*
X153388209Y-74811293D01*
X153329366Y-74801973D01*
X152150634Y-74801973D01*
X152091790Y-74811293D01*
X151974101Y-74829933D01*
X151974098Y-74829933D01*
X151804121Y-74885162D01*
X151804118Y-74885164D01*
X151644867Y-74966306D01*
X151500270Y-75071363D01*
X151373890Y-75197743D01*
X151268833Y-75342340D01*
X151187691Y-75501591D01*
X151187689Y-75501594D01*
X151132460Y-75671571D01*
X151132460Y-75671574D01*
X151104500Y-75848107D01*
X150740500Y-75848107D01*
X150740500Y-74596961D01*
X150741280Y-74583077D01*
X150751459Y-74492731D01*
X150757635Y-74465670D01*
X150785353Y-74386456D01*
X150797396Y-74361450D01*
X150842046Y-74290389D01*
X150859351Y-74268690D01*
X150918690Y-74209351D01*
X150940389Y-74192046D01*
X151011450Y-74147396D01*
X151036456Y-74135353D01*
X151115670Y-74107635D01*
X151142733Y-74101459D01*
X151206888Y-74094231D01*
X151233079Y-74091280D01*
X151246962Y-74090500D01*
X151305892Y-74090500D01*
X154115361Y-74090500D01*
X154182400Y-74110185D01*
G37*
%TD.AperFunction*%
%TA.AperFunction,Conductor*%
G36*
X173714549Y-76066110D02*
G01*
X173731269Y-76085405D01*
X173861505Y-76271401D01*
X173861506Y-76271402D01*
X174028597Y-76438493D01*
X174028603Y-76438498D01*
X174214158Y-76568425D01*
X174257783Y-76623002D01*
X174264977Y-76692500D01*
X174233454Y-76754855D01*
X174214158Y-76771575D01*
X174028597Y-76901505D01*
X173861505Y-77068597D01*
X173731575Y-77254158D01*
X173676998Y-77297783D01*
X173607500Y-77304977D01*
X173545145Y-77273454D01*
X173528425Y-77254158D01*
X173398494Y-77068597D01*
X173231402Y-76901506D01*
X173231401Y-76901505D01*
X173063844Y-76784180D01*
X173045405Y-76771269D01*
X173001781Y-76716692D01*
X172994588Y-76647193D01*
X173026110Y-76584839D01*
X173045405Y-76568119D01*
X173231082Y-76438105D01*
X173398105Y-76271082D01*
X173528119Y-76085405D01*
X173582696Y-76041781D01*
X173652195Y-76034588D01*
X173714549Y-76066110D01*
G37*
%TD.AperFunction*%
%TA.AperFunction,Conductor*%
G36*
X176254855Y-76066546D02*
G01*
X176271575Y-76085842D01*
X176401501Y-76271396D01*
X176401506Y-76271402D01*
X176568597Y-76438493D01*
X176568603Y-76438498D01*
X176754158Y-76568425D01*
X176797783Y-76623002D01*
X176804977Y-76692500D01*
X176773454Y-76754855D01*
X176754158Y-76771575D01*
X176568597Y-76901505D01*
X176401505Y-77068597D01*
X176271575Y-77254158D01*
X176216998Y-77297783D01*
X176147500Y-77304977D01*
X176085145Y-77273454D01*
X176068425Y-77254158D01*
X175938494Y-77068597D01*
X175771402Y-76901506D01*
X175771396Y-76901501D01*
X175585842Y-76771575D01*
X175542217Y-76716998D01*
X175535023Y-76647500D01*
X175566546Y-76585145D01*
X175585842Y-76568425D01*
X175698054Y-76489853D01*
X175771401Y-76438495D01*
X175938495Y-76271401D01*
X176068425Y-76085842D01*
X176123002Y-76042217D01*
X176192500Y-76035023D01*
X176254855Y-76066546D01*
G37*
%TD.AperFunction*%
%TA.AperFunction,Conductor*%
G36*
X178795160Y-76066110D02*
G01*
X178811879Y-76085405D01*
X178941890Y-76271078D01*
X179108917Y-76438105D01*
X179294595Y-76568119D01*
X179338219Y-76622696D01*
X179345412Y-76692195D01*
X179313890Y-76754549D01*
X179294595Y-76771269D01*
X179108594Y-76901508D01*
X178941505Y-77068597D01*
X178811575Y-77254158D01*
X178756998Y-77297783D01*
X178687500Y-77304977D01*
X178625145Y-77273454D01*
X178608425Y-77254158D01*
X178478494Y-77068597D01*
X178311402Y-76901506D01*
X178311396Y-76901501D01*
X178125842Y-76771575D01*
X178082217Y-76716998D01*
X178075023Y-76647500D01*
X178106546Y-76585145D01*
X178125842Y-76568425D01*
X178238054Y-76489853D01*
X178311401Y-76438495D01*
X178478495Y-76271401D01*
X178608730Y-76085405D01*
X178663307Y-76041781D01*
X178732805Y-76034587D01*
X178795160Y-76066110D01*
G37*
%TD.AperFunction*%
%TA.AperFunction,Conductor*%
G36*
X166309160Y-68160110D02*
G01*
X166325879Y-68179405D01*
X166455890Y-68365078D01*
X166622917Y-68532105D01*
X166788628Y-68648138D01*
X166832253Y-68702715D01*
X166839445Y-68772214D01*
X166807923Y-68834568D01*
X166805185Y-68837394D01*
X165425415Y-70217164D01*
X165364092Y-70250649D01*
X165305641Y-70249258D01*
X165207413Y-70222938D01*
X165207403Y-70222936D01*
X164972001Y-70202341D01*
X164971999Y-70202341D01*
X164736596Y-70222936D01*
X164736586Y-70222938D01*
X164508344Y-70284094D01*
X164508335Y-70284098D01*
X164294171Y-70383964D01*
X164294169Y-70383965D01*
X164100597Y-70519505D01*
X163933508Y-70686594D01*
X163803269Y-70872595D01*
X163748692Y-70916219D01*
X163679193Y-70923412D01*
X163616839Y-70891890D01*
X163600119Y-70872594D01*
X163470113Y-70686926D01*
X163470108Y-70686920D01*
X163303082Y-70519894D01*
X163109578Y-70384399D01*
X162895492Y-70284570D01*
X162895486Y-70284567D01*
X162682000Y-70227364D01*
X162682000Y-71124988D01*
X162624993Y-71092075D01*
X162497826Y-71058000D01*
X162366174Y-71058000D01*
X162239007Y-71092075D01*
X162182000Y-71124988D01*
X162182000Y-70227364D01*
X162181999Y-70227364D01*
X161968513Y-70284567D01*
X161968507Y-70284570D01*
X161754422Y-70384399D01*
X161754420Y-70384400D01*
X161560926Y-70519886D01*
X161560920Y-70519891D01*
X161393891Y-70686920D01*
X161393890Y-70686922D01*
X161263880Y-70872595D01*
X161209303Y-70916219D01*
X161139804Y-70923412D01*
X161077450Y-70891890D01*
X161060730Y-70872594D01*
X160930494Y-70686597D01*
X160763402Y-70519506D01*
X160763395Y-70519501D01*
X160569834Y-70383967D01*
X160569830Y-70383965D01*
X160546905Y-70373275D01*
X160355663Y-70284097D01*
X160355659Y-70284096D01*
X160355655Y-70284094D01*
X160127413Y-70222938D01*
X160127403Y-70222936D01*
X160001900Y-70211955D01*
X159936832Y-70186502D01*
X159925028Y-70176108D01*
X158578530Y-68829610D01*
X158545045Y-68768287D01*
X158550029Y-68698595D01*
X158566945Y-68667618D01*
X158627793Y-68586335D01*
X158627792Y-68586335D01*
X158627796Y-68586331D01*
X158676810Y-68454916D01*
X158718681Y-68398984D01*
X158784145Y-68374566D01*
X158852418Y-68389417D01*
X158880673Y-68410569D01*
X159002599Y-68532495D01*
X159080816Y-68587263D01*
X159196165Y-68668032D01*
X159196167Y-68668033D01*
X159196170Y-68668035D01*
X159410337Y-68767903D01*
X159638592Y-68829063D01*
X159826918Y-68845539D01*
X159873999Y-68849659D01*
X159874000Y-68849659D01*
X159874001Y-68849659D01*
X159913234Y-68846226D01*
X160109408Y-68829063D01*
X160337663Y-68767903D01*
X160551830Y-68668035D01*
X160745401Y-68532495D01*
X160912495Y-68365401D01*
X161042425Y-68179842D01*
X161097002Y-68136217D01*
X161166500Y-68129023D01*
X161228855Y-68160546D01*
X161245575Y-68179842D01*
X161375278Y-68365078D01*
X161375505Y-68365401D01*
X161542599Y-68532495D01*
X161620816Y-68587263D01*
X161736165Y-68668032D01*
X161736167Y-68668033D01*
X161736170Y-68668035D01*
X161950337Y-68767903D01*
X162178592Y-68829063D01*
X162366918Y-68845539D01*
X162413999Y-68849659D01*
X162414000Y-68849659D01*
X162414001Y-68849659D01*
X162453234Y-68846226D01*
X162649408Y-68829063D01*
X162877663Y-68767903D01*
X163091830Y-68668035D01*
X163285401Y-68532495D01*
X163452495Y-68365401D01*
X163582425Y-68179842D01*
X163637002Y-68136217D01*
X163706500Y-68129023D01*
X163768855Y-68160546D01*
X163785575Y-68179842D01*
X163915278Y-68365078D01*
X163915505Y-68365401D01*
X164082599Y-68532495D01*
X164160816Y-68587263D01*
X164276165Y-68668032D01*
X164276167Y-68668033D01*
X164276170Y-68668035D01*
X164490337Y-68767903D01*
X164718592Y-68829063D01*
X164906918Y-68845539D01*
X164953999Y-68849659D01*
X164954000Y-68849659D01*
X164954001Y-68849659D01*
X164993234Y-68846226D01*
X165189408Y-68829063D01*
X165417663Y-68767903D01*
X165631830Y-68668035D01*
X165825401Y-68532495D01*
X165992495Y-68365401D01*
X166122730Y-68179405D01*
X166177307Y-68135781D01*
X166246805Y-68128587D01*
X166309160Y-68160110D01*
G37*
%TD.AperFunction*%
%TA.AperFunction,Conductor*%
G36*
X188064000Y-68824633D02*
G01*
X188277483Y-68767433D01*
X188277492Y-68767429D01*
X188491579Y-68667599D01*
X188561907Y-68618354D01*
X188628113Y-68596026D01*
X188695880Y-68613035D01*
X188743694Y-68663982D01*
X188756373Y-68732692D01*
X188750074Y-68760881D01*
X188738648Y-68793536D01*
X188726600Y-68818555D01*
X188681957Y-68889604D01*
X188664644Y-68911313D01*
X188605313Y-68970644D01*
X188583604Y-68987957D01*
X188512555Y-69032600D01*
X188487537Y-69044648D01*
X188408333Y-69072362D01*
X188381264Y-69078540D01*
X188301075Y-69087576D01*
X188290921Y-69088720D01*
X188277038Y-69089500D01*
X185632682Y-69089500D01*
X185420235Y-69120044D01*
X185420225Y-69120047D01*
X185214284Y-69180517D01*
X185019061Y-69269672D01*
X185019048Y-69269679D01*
X184838485Y-69385720D01*
X184676275Y-69526275D01*
X184535720Y-69688485D01*
X184419679Y-69869048D01*
X184419672Y-69869061D01*
X184330517Y-70064284D01*
X184270047Y-70270225D01*
X184270044Y-70270236D01*
X184252946Y-70389161D01*
X184223921Y-70452717D01*
X184165143Y-70490491D01*
X184095273Y-70490491D01*
X184036495Y-70452717D01*
X184030942Y-70445826D01*
X183988522Y-70389161D01*
X183959546Y-70350454D01*
X183959544Y-70350453D01*
X183959544Y-70350452D01*
X183844335Y-70264206D01*
X183844328Y-70264202D01*
X183709486Y-70213910D01*
X183709485Y-70213909D01*
X183709483Y-70213909D01*
X183709480Y-70213908D01*
X183709122Y-70213824D01*
X183708868Y-70213679D01*
X183702215Y-70211198D01*
X183702617Y-70210120D01*
X183648404Y-70179252D01*
X183616017Y-70117342D01*
X183622241Y-70047751D01*
X183649950Y-70005467D01*
X184820584Y-68834833D01*
X184881905Y-68801350D01*
X184940356Y-68802741D01*
X184958058Y-68807484D01*
X185038592Y-68829063D01*
X185226918Y-68845539D01*
X185273999Y-68849659D01*
X185274000Y-68849659D01*
X185274001Y-68849659D01*
X185313234Y-68846226D01*
X185509408Y-68829063D01*
X185737663Y-68767903D01*
X185951830Y-68668035D01*
X186145401Y-68532495D01*
X186312495Y-68365401D01*
X186442730Y-68179405D01*
X186497307Y-68135781D01*
X186566805Y-68128587D01*
X186629160Y-68160110D01*
X186645879Y-68179405D01*
X186775890Y-68365078D01*
X186942917Y-68532105D01*
X187136421Y-68667600D01*
X187350507Y-68767429D01*
X187350516Y-68767433D01*
X187564000Y-68824634D01*
X187564000Y-67927012D01*
X187621007Y-67959925D01*
X187748174Y-67994000D01*
X187879826Y-67994000D01*
X188006993Y-67959925D01*
X188064000Y-67927012D01*
X188064000Y-68824633D01*
G37*
%TD.AperFunction*%
%TA.AperFunction,Conductor*%
G36*
X186416340Y-65842068D02*
G01*
X186472274Y-65883939D01*
X186489189Y-65914917D01*
X186538202Y-66046328D01*
X186538206Y-66046335D01*
X186624452Y-66161544D01*
X186624455Y-66161547D01*
X186739664Y-66247793D01*
X186739673Y-66247798D01*
X186802772Y-66271332D01*
X186858487Y-66292112D01*
X186914421Y-66333982D01*
X186938839Y-66399447D01*
X186923988Y-66467720D01*
X186902837Y-66495975D01*
X186775888Y-66622924D01*
X186645880Y-66808595D01*
X186591303Y-66852219D01*
X186521804Y-66859412D01*
X186459450Y-66827890D01*
X186442730Y-66808594D01*
X186312494Y-66622597D01*
X186145402Y-66455506D01*
X186145401Y-66455505D01*
X186014127Y-66363586D01*
X185968841Y-66331876D01*
X185925216Y-66277299D01*
X185918024Y-66207800D01*
X185949546Y-66145446D01*
X185968842Y-66128726D01*
X185969826Y-66128036D01*
X185969830Y-66128035D01*
X186163401Y-65992495D01*
X186285329Y-65870566D01*
X186346648Y-65837084D01*
X186416340Y-65842068D01*
G37*
%TD.AperFunction*%
%TA.AperFunction,Conductor*%
G36*
X181566549Y-65620110D02*
G01*
X181583269Y-65639405D01*
X181713505Y-65825401D01*
X181713506Y-65825402D01*
X181880597Y-65992493D01*
X181880603Y-65992498D01*
X182057158Y-66116123D01*
X182100783Y-66170700D01*
X182107977Y-66240198D01*
X182076454Y-66302553D01*
X182057158Y-66319273D01*
X181862597Y-66455505D01*
X181695505Y-66622597D01*
X181565575Y-66808158D01*
X181510998Y-66851783D01*
X181441500Y-66858977D01*
X181379145Y-66827454D01*
X181362425Y-66808158D01*
X181232494Y-66622597D01*
X181065402Y-66455506D01*
X181065401Y-66455505D01*
X180888404Y-66331570D01*
X180844781Y-66276994D01*
X180837588Y-66207495D01*
X180869110Y-66145141D01*
X180888405Y-66128421D01*
X181083082Y-65992105D01*
X181250105Y-65825082D01*
X181380119Y-65639405D01*
X181434696Y-65595781D01*
X181504195Y-65588588D01*
X181566549Y-65620110D01*
G37*
%TD.AperFunction*%
%TA.AperFunction,Conductor*%
G36*
X184106855Y-65620546D02*
G01*
X184123575Y-65639842D01*
X184253501Y-65825396D01*
X184253506Y-65825402D01*
X184420597Y-65992493D01*
X184420603Y-65992498D01*
X184597158Y-66116123D01*
X184640783Y-66170700D01*
X184647977Y-66240198D01*
X184616454Y-66302553D01*
X184597158Y-66319273D01*
X184402597Y-66455505D01*
X184235505Y-66622597D01*
X184105575Y-66808158D01*
X184050998Y-66851783D01*
X183981500Y-66858977D01*
X183919145Y-66827454D01*
X183902425Y-66808158D01*
X183772494Y-66622597D01*
X183605402Y-66455506D01*
X183605401Y-66455505D01*
X183474127Y-66363586D01*
X183428841Y-66331876D01*
X183385216Y-66277299D01*
X183378024Y-66207800D01*
X183409546Y-66145446D01*
X183428842Y-66128726D01*
X183429826Y-66128036D01*
X183429830Y-66128035D01*
X183623401Y-65992495D01*
X183790495Y-65825401D01*
X183920425Y-65639842D01*
X183975002Y-65596217D01*
X184044500Y-65589023D01*
X184106855Y-65620546D01*
G37*
%TD.AperFunction*%
%TD*%
M02*
