%TF.GenerationSoftware,KiCad,Pcbnew,8.0.3*%
%TF.CreationDate,2024-12-22T12:47:46-05:00*%
%TF.ProjectId,klipper_screen_riser,6b6c6970-7065-4725-9f73-637265656e5f,rev?*%
%TF.SameCoordinates,Original*%
%TF.FileFunction,Soldermask,Top*%
%TF.FilePolarity,Negative*%
%FSLAX46Y46*%
G04 Gerber Fmt 4.6, Leading zero omitted, Abs format (unit mm)*
G04 Created by KiCad (PCBNEW 8.0.3) date 2024-12-22 12:47:46*
%MOMM*%
%LPD*%
G01*
G04 APERTURE LIST*
%ADD10O,2.270000X1.270000*%
%ADD11R,2.270000X1.270000*%
%ADD12O,1.700000X1.700000*%
%ADD13R,1.700000X1.700000*%
G04 APERTURE END LIST*
D10*
%TO.C,SW1*%
X152740000Y-75937473D03*
X152740000Y-78437473D03*
D11*
X152740000Y-80937473D03*
%TD*%
D12*
%TO.C,J2*%
X187600000Y-75400000D03*
X187600000Y-77940000D03*
X185060000Y-75400000D03*
X185060000Y-77940000D03*
X182520000Y-75400000D03*
X182520000Y-77940000D03*
X179980000Y-75400000D03*
X179980000Y-77940000D03*
X177440000Y-75400000D03*
X177440000Y-77940000D03*
X174900000Y-75400000D03*
X174900000Y-77940000D03*
X172360000Y-75400000D03*
X172360000Y-77940000D03*
X169820000Y-75400000D03*
X169820000Y-77940000D03*
X167280000Y-75400000D03*
X167280000Y-77940000D03*
X164740000Y-75400000D03*
X164740000Y-77940000D03*
X162200000Y-75400000D03*
X162200000Y-77940000D03*
X159660000Y-75400000D03*
X159660000Y-77940000D03*
X157120000Y-75400000D03*
D13*
X157120000Y-77940000D03*
%TD*%
D12*
%TO.C,J5*%
X187814000Y-67494000D03*
X185274000Y-67494000D03*
X182734000Y-67494000D03*
X180194000Y-67494000D03*
X177654000Y-67494000D03*
X175114000Y-67494000D03*
X172574000Y-67494000D03*
X170034000Y-67494000D03*
X167494000Y-67494000D03*
X164954000Y-67494000D03*
X162414000Y-67494000D03*
X159874000Y-67494000D03*
D13*
X157334000Y-67494000D03*
%TD*%
D12*
%TO.C,J4*%
X157334000Y-64954000D03*
D13*
X159874000Y-64954000D03*
%TD*%
D12*
%TO.C,J3*%
X157120000Y-81718000D03*
X159660000Y-81718000D03*
X162200000Y-81718000D03*
X164740000Y-81718000D03*
X167280000Y-81718000D03*
X169820000Y-81718000D03*
X172360000Y-81718000D03*
X174900000Y-81718000D03*
X177440000Y-81718000D03*
X179980000Y-81718000D03*
D13*
X182520000Y-81718000D03*
%TD*%
D12*
%TO.C,J6*%
X177672000Y-64954000D03*
X180212000Y-64954000D03*
X182752000Y-64954000D03*
X185292000Y-64954000D03*
D13*
X187832000Y-64954000D03*
%TD*%
D12*
%TO.C,J1*%
X157352000Y-71558000D03*
X159892000Y-71558000D03*
X162432000Y-71558000D03*
X164972000Y-71558000D03*
X167512000Y-71558000D03*
X170052000Y-71558000D03*
X172592000Y-71558000D03*
X175132000Y-71558000D03*
X177672000Y-71558000D03*
X180212000Y-71558000D03*
D13*
X182752000Y-71558000D03*
%TD*%
M02*
