%TF.GenerationSoftware,KiCad,Pcbnew,8.0.3*%
%TF.CreationDate,2024-12-22T12:47:46-05:00*%
%TF.ProjectId,klipper_screen_riser,6b6c6970-7065-4725-9f73-637265656e5f,rev?*%
%TF.SameCoordinates,Original*%
%TF.FileFunction,Legend,Bot*%
%TF.FilePolarity,Positive*%
%FSLAX46Y46*%
G04 Gerber Fmt 4.6, Leading zero omitted, Abs format (unit mm)*
G04 Created by KiCad (PCBNEW 8.0.3) date 2024-12-22 12:47:46*
%MOMM*%
%LPD*%
G01*
G04 APERTURE LIST*
%ADD10C,0.100000*%
%ADD11C,0.150000*%
G04 APERTURE END LIST*
D10*
X164650401Y-68962419D02*
X164650401Y-69676704D01*
X164650401Y-69676704D02*
X164698020Y-69819561D01*
X164698020Y-69819561D02*
X164793258Y-69914800D01*
X164793258Y-69914800D02*
X164936115Y-69962419D01*
X164936115Y-69962419D02*
X165031353Y-69962419D01*
X163698020Y-69962419D02*
X164174210Y-69962419D01*
X164174210Y-69962419D02*
X164174210Y-68962419D01*
X162793258Y-69867180D02*
X162840877Y-69914800D01*
X162840877Y-69914800D02*
X162983734Y-69962419D01*
X162983734Y-69962419D02*
X163078972Y-69962419D01*
X163078972Y-69962419D02*
X163221829Y-69914800D01*
X163221829Y-69914800D02*
X163317067Y-69819561D01*
X163317067Y-69819561D02*
X163364686Y-69724323D01*
X163364686Y-69724323D02*
X163412305Y-69533847D01*
X163412305Y-69533847D02*
X163412305Y-69390990D01*
X163412305Y-69390990D02*
X163364686Y-69200514D01*
X163364686Y-69200514D02*
X163317067Y-69105276D01*
X163317067Y-69105276D02*
X163221829Y-69010038D01*
X163221829Y-69010038D02*
X163078972Y-68962419D01*
X163078972Y-68962419D02*
X162983734Y-68962419D01*
X162983734Y-68962419D02*
X162840877Y-69010038D01*
X162840877Y-69010038D02*
X162793258Y-69057657D01*
X162078972Y-68962419D02*
X162078972Y-69676704D01*
X162078972Y-69676704D02*
X162126591Y-69819561D01*
X162126591Y-69819561D02*
X162221829Y-69914800D01*
X162221829Y-69914800D02*
X162364686Y-69962419D01*
X162364686Y-69962419D02*
X162459924Y-69962419D01*
X161126591Y-69962419D02*
X161602781Y-69962419D01*
X161602781Y-69962419D02*
X161602781Y-68962419D01*
X160221829Y-69867180D02*
X160269448Y-69914800D01*
X160269448Y-69914800D02*
X160412305Y-69962419D01*
X160412305Y-69962419D02*
X160507543Y-69962419D01*
X160507543Y-69962419D02*
X160650400Y-69914800D01*
X160650400Y-69914800D02*
X160745638Y-69819561D01*
X160745638Y-69819561D02*
X160793257Y-69724323D01*
X160793257Y-69724323D02*
X160840876Y-69533847D01*
X160840876Y-69533847D02*
X160840876Y-69390990D01*
X160840876Y-69390990D02*
X160793257Y-69200514D01*
X160793257Y-69200514D02*
X160745638Y-69105276D01*
X160745638Y-69105276D02*
X160650400Y-69010038D01*
X160650400Y-69010038D02*
X160507543Y-68962419D01*
X160507543Y-68962419D02*
X160412305Y-68962419D01*
X160412305Y-68962419D02*
X160269448Y-69010038D01*
X160269448Y-69010038D02*
X160221829Y-69057657D01*
X159507543Y-68962419D02*
X159507543Y-69676704D01*
X159507543Y-69676704D02*
X159555162Y-69819561D01*
X159555162Y-69819561D02*
X159650400Y-69914800D01*
X159650400Y-69914800D02*
X159793257Y-69962419D01*
X159793257Y-69962419D02*
X159888495Y-69962419D01*
X158555162Y-69962419D02*
X159031352Y-69962419D01*
X159031352Y-69962419D02*
X159031352Y-68962419D01*
X157650400Y-69867180D02*
X157698019Y-69914800D01*
X157698019Y-69914800D02*
X157840876Y-69962419D01*
X157840876Y-69962419D02*
X157936114Y-69962419D01*
X157936114Y-69962419D02*
X158078971Y-69914800D01*
X158078971Y-69914800D02*
X158174209Y-69819561D01*
X158174209Y-69819561D02*
X158221828Y-69724323D01*
X158221828Y-69724323D02*
X158269447Y-69533847D01*
X158269447Y-69533847D02*
X158269447Y-69390990D01*
X158269447Y-69390990D02*
X158221828Y-69200514D01*
X158221828Y-69200514D02*
X158174209Y-69105276D01*
X158174209Y-69105276D02*
X158078971Y-69010038D01*
X158078971Y-69010038D02*
X157936114Y-68962419D01*
X157936114Y-68962419D02*
X157840876Y-68962419D01*
X157840876Y-68962419D02*
X157698019Y-69010038D01*
X157698019Y-69010038D02*
X157650400Y-69057657D01*
X156936114Y-68962419D02*
X156936114Y-69676704D01*
X156936114Y-69676704D02*
X156983733Y-69819561D01*
X156983733Y-69819561D02*
X157078971Y-69914800D01*
X157078971Y-69914800D02*
X157221828Y-69962419D01*
X157221828Y-69962419D02*
X157317066Y-69962419D01*
X155983733Y-69962419D02*
X156459923Y-69962419D01*
X156459923Y-69962419D02*
X156459923Y-68962419D01*
X155078971Y-69867180D02*
X155126590Y-69914800D01*
X155126590Y-69914800D02*
X155269447Y-69962419D01*
X155269447Y-69962419D02*
X155364685Y-69962419D01*
X155364685Y-69962419D02*
X155507542Y-69914800D01*
X155507542Y-69914800D02*
X155602780Y-69819561D01*
X155602780Y-69819561D02*
X155650399Y-69724323D01*
X155650399Y-69724323D02*
X155698018Y-69533847D01*
X155698018Y-69533847D02*
X155698018Y-69390990D01*
X155698018Y-69390990D02*
X155650399Y-69200514D01*
X155650399Y-69200514D02*
X155602780Y-69105276D01*
X155602780Y-69105276D02*
X155507542Y-69010038D01*
X155507542Y-69010038D02*
X155364685Y-68962419D01*
X155364685Y-68962419D02*
X155269447Y-68962419D01*
X155269447Y-68962419D02*
X155126590Y-69010038D01*
X155126590Y-69010038D02*
X155078971Y-69057657D01*
D11*
X183855554Y-84124636D02*
X183855554Y-83224636D01*
X183855554Y-83224636D02*
X183641268Y-83224636D01*
X183641268Y-83224636D02*
X183512697Y-83267493D01*
X183512697Y-83267493D02*
X183426982Y-83353207D01*
X183426982Y-83353207D02*
X183384125Y-83438921D01*
X183384125Y-83438921D02*
X183341268Y-83610350D01*
X183341268Y-83610350D02*
X183341268Y-83738921D01*
X183341268Y-83738921D02*
X183384125Y-83910350D01*
X183384125Y-83910350D02*
X183426982Y-83996064D01*
X183426982Y-83996064D02*
X183512697Y-84081779D01*
X183512697Y-84081779D02*
X183641268Y-84124636D01*
X183641268Y-84124636D02*
X183855554Y-84124636D01*
X182612697Y-84081779D02*
X182698411Y-84124636D01*
X182698411Y-84124636D02*
X182869840Y-84124636D01*
X182869840Y-84124636D02*
X182955554Y-84081779D01*
X182955554Y-84081779D02*
X182998411Y-83996064D01*
X182998411Y-83996064D02*
X182998411Y-83653207D01*
X182998411Y-83653207D02*
X182955554Y-83567493D01*
X182955554Y-83567493D02*
X182869840Y-83524636D01*
X182869840Y-83524636D02*
X182698411Y-83524636D01*
X182698411Y-83524636D02*
X182612697Y-83567493D01*
X182612697Y-83567493D02*
X182569840Y-83653207D01*
X182569840Y-83653207D02*
X182569840Y-83738921D01*
X182569840Y-83738921D02*
X182998411Y-83824636D01*
X182226982Y-84081779D02*
X182141268Y-84124636D01*
X182141268Y-84124636D02*
X181969839Y-84124636D01*
X181969839Y-84124636D02*
X181884125Y-84081779D01*
X181884125Y-84081779D02*
X181841268Y-83996064D01*
X181841268Y-83996064D02*
X181841268Y-83953207D01*
X181841268Y-83953207D02*
X181884125Y-83867493D01*
X181884125Y-83867493D02*
X181969839Y-83824636D01*
X181969839Y-83824636D02*
X182098411Y-83824636D01*
X182098411Y-83824636D02*
X182184125Y-83781779D01*
X182184125Y-83781779D02*
X182226982Y-83696064D01*
X182226982Y-83696064D02*
X182226982Y-83653207D01*
X182226982Y-83653207D02*
X182184125Y-83567493D01*
X182184125Y-83567493D02*
X182098411Y-83524636D01*
X182098411Y-83524636D02*
X181969839Y-83524636D01*
X181969839Y-83524636D02*
X181884125Y-83567493D01*
X181455554Y-84124636D02*
X181455554Y-83524636D01*
X181455554Y-83224636D02*
X181498411Y-83267493D01*
X181498411Y-83267493D02*
X181455554Y-83310350D01*
X181455554Y-83310350D02*
X181412697Y-83267493D01*
X181412697Y-83267493D02*
X181455554Y-83224636D01*
X181455554Y-83224636D02*
X181455554Y-83310350D01*
X180641269Y-83524636D02*
X180641269Y-84253207D01*
X180641269Y-84253207D02*
X180684126Y-84338921D01*
X180684126Y-84338921D02*
X180726983Y-84381779D01*
X180726983Y-84381779D02*
X180812697Y-84424636D01*
X180812697Y-84424636D02*
X180941269Y-84424636D01*
X180941269Y-84424636D02*
X181026983Y-84381779D01*
X180641269Y-84081779D02*
X180726983Y-84124636D01*
X180726983Y-84124636D02*
X180898411Y-84124636D01*
X180898411Y-84124636D02*
X180984126Y-84081779D01*
X180984126Y-84081779D02*
X181026983Y-84038921D01*
X181026983Y-84038921D02*
X181069840Y-83953207D01*
X181069840Y-83953207D02*
X181069840Y-83696064D01*
X181069840Y-83696064D02*
X181026983Y-83610350D01*
X181026983Y-83610350D02*
X180984126Y-83567493D01*
X180984126Y-83567493D02*
X180898411Y-83524636D01*
X180898411Y-83524636D02*
X180726983Y-83524636D01*
X180726983Y-83524636D02*
X180641269Y-83567493D01*
X180212697Y-83524636D02*
X180212697Y-84124636D01*
X180212697Y-83610350D02*
X180169840Y-83567493D01*
X180169840Y-83567493D02*
X180084125Y-83524636D01*
X180084125Y-83524636D02*
X179955554Y-83524636D01*
X179955554Y-83524636D02*
X179869840Y-83567493D01*
X179869840Y-83567493D02*
X179826983Y-83653207D01*
X179826983Y-83653207D02*
X179826983Y-84124636D01*
X179055554Y-84081779D02*
X179141268Y-84124636D01*
X179141268Y-84124636D02*
X179312697Y-84124636D01*
X179312697Y-84124636D02*
X179398411Y-84081779D01*
X179398411Y-84081779D02*
X179441268Y-83996064D01*
X179441268Y-83996064D02*
X179441268Y-83653207D01*
X179441268Y-83653207D02*
X179398411Y-83567493D01*
X179398411Y-83567493D02*
X179312697Y-83524636D01*
X179312697Y-83524636D02*
X179141268Y-83524636D01*
X179141268Y-83524636D02*
X179055554Y-83567493D01*
X179055554Y-83567493D02*
X179012697Y-83653207D01*
X179012697Y-83653207D02*
X179012697Y-83738921D01*
X179012697Y-83738921D02*
X179441268Y-83824636D01*
X178241268Y-84124636D02*
X178241268Y-83224636D01*
X178241268Y-84081779D02*
X178326982Y-84124636D01*
X178326982Y-84124636D02*
X178498410Y-84124636D01*
X178498410Y-84124636D02*
X178584125Y-84081779D01*
X178584125Y-84081779D02*
X178626982Y-84038921D01*
X178626982Y-84038921D02*
X178669839Y-83953207D01*
X178669839Y-83953207D02*
X178669839Y-83696064D01*
X178669839Y-83696064D02*
X178626982Y-83610350D01*
X178626982Y-83610350D02*
X178584125Y-83567493D01*
X178584125Y-83567493D02*
X178498410Y-83524636D01*
X178498410Y-83524636D02*
X178326982Y-83524636D01*
X178326982Y-83524636D02*
X178241268Y-83567493D01*
X177126982Y-84124636D02*
X177126982Y-83224636D01*
X177126982Y-83567493D02*
X177041268Y-83524636D01*
X177041268Y-83524636D02*
X176869839Y-83524636D01*
X176869839Y-83524636D02*
X176784125Y-83567493D01*
X176784125Y-83567493D02*
X176741268Y-83610350D01*
X176741268Y-83610350D02*
X176698410Y-83696064D01*
X176698410Y-83696064D02*
X176698410Y-83953207D01*
X176698410Y-83953207D02*
X176741268Y-84038921D01*
X176741268Y-84038921D02*
X176784125Y-84081779D01*
X176784125Y-84081779D02*
X176869839Y-84124636D01*
X176869839Y-84124636D02*
X177041268Y-84124636D01*
X177041268Y-84124636D02*
X177126982Y-84081779D01*
X176398410Y-83524636D02*
X176184124Y-84124636D01*
X175969839Y-83524636D02*
X176184124Y-84124636D01*
X176184124Y-84124636D02*
X176269839Y-84338921D01*
X176269839Y-84338921D02*
X176312696Y-84381779D01*
X176312696Y-84381779D02*
X176398410Y-84424636D01*
X174984125Y-84081779D02*
X174855554Y-84124636D01*
X174855554Y-84124636D02*
X174641268Y-84124636D01*
X174641268Y-84124636D02*
X174555554Y-84081779D01*
X174555554Y-84081779D02*
X174512696Y-84038921D01*
X174512696Y-84038921D02*
X174469839Y-83953207D01*
X174469839Y-83953207D02*
X174469839Y-83867493D01*
X174469839Y-83867493D02*
X174512696Y-83781779D01*
X174512696Y-83781779D02*
X174555554Y-83738921D01*
X174555554Y-83738921D02*
X174641268Y-83696064D01*
X174641268Y-83696064D02*
X174812696Y-83653207D01*
X174812696Y-83653207D02*
X174898411Y-83610350D01*
X174898411Y-83610350D02*
X174941268Y-83567493D01*
X174941268Y-83567493D02*
X174984125Y-83481779D01*
X174984125Y-83481779D02*
X174984125Y-83396064D01*
X174984125Y-83396064D02*
X174941268Y-83310350D01*
X174941268Y-83310350D02*
X174898411Y-83267493D01*
X174898411Y-83267493D02*
X174812696Y-83224636D01*
X174812696Y-83224636D02*
X174598411Y-83224636D01*
X174598411Y-83224636D02*
X174469839Y-83267493D01*
X174084125Y-84124636D02*
X174084125Y-83224636D01*
X173698411Y-84124636D02*
X173698411Y-83653207D01*
X173698411Y-83653207D02*
X173741268Y-83567493D01*
X173741268Y-83567493D02*
X173826982Y-83524636D01*
X173826982Y-83524636D02*
X173955553Y-83524636D01*
X173955553Y-83524636D02*
X174041268Y-83567493D01*
X174041268Y-83567493D02*
X174084125Y-83610350D01*
X172884125Y-84124636D02*
X172884125Y-83653207D01*
X172884125Y-83653207D02*
X172926982Y-83567493D01*
X172926982Y-83567493D02*
X173012696Y-83524636D01*
X173012696Y-83524636D02*
X173184125Y-83524636D01*
X173184125Y-83524636D02*
X173269839Y-83567493D01*
X172884125Y-84081779D02*
X172969839Y-84124636D01*
X172969839Y-84124636D02*
X173184125Y-84124636D01*
X173184125Y-84124636D02*
X173269839Y-84081779D01*
X173269839Y-84081779D02*
X173312696Y-83996064D01*
X173312696Y-83996064D02*
X173312696Y-83910350D01*
X173312696Y-83910350D02*
X173269839Y-83824636D01*
X173269839Y-83824636D02*
X173184125Y-83781779D01*
X173184125Y-83781779D02*
X172969839Y-83781779D01*
X172969839Y-83781779D02*
X172884125Y-83738921D01*
X172541267Y-83524636D02*
X172369839Y-84124636D01*
X172369839Y-84124636D02*
X172198410Y-83696064D01*
X172198410Y-83696064D02*
X172026981Y-84124636D01*
X172026981Y-84124636D02*
X171855553Y-83524636D01*
X171512696Y-83524636D02*
X171512696Y-84124636D01*
X171512696Y-83610350D02*
X171469839Y-83567493D01*
X171469839Y-83567493D02*
X171384124Y-83524636D01*
X171384124Y-83524636D02*
X171255553Y-83524636D01*
X171255553Y-83524636D02*
X171169839Y-83567493D01*
X171169839Y-83567493D02*
X171126982Y-83653207D01*
X171126982Y-83653207D02*
X171126982Y-84124636D01*
X169455553Y-83696064D02*
X169498410Y-83653207D01*
X169498410Y-83653207D02*
X169584124Y-83610350D01*
X169584124Y-83610350D02*
X169669839Y-83610350D01*
X169669839Y-83610350D02*
X169755553Y-83653207D01*
X169755553Y-83653207D02*
X169798410Y-83696064D01*
X169798410Y-83696064D02*
X169841267Y-83781779D01*
X169841267Y-83781779D02*
X169841267Y-83867493D01*
X169841267Y-83867493D02*
X169798410Y-83953207D01*
X169798410Y-83953207D02*
X169755553Y-83996064D01*
X169755553Y-83996064D02*
X169669839Y-84038921D01*
X169669839Y-84038921D02*
X169584124Y-84038921D01*
X169584124Y-84038921D02*
X169498410Y-83996064D01*
X169498410Y-83996064D02*
X169455553Y-83953207D01*
X169455553Y-83610350D02*
X169455553Y-83953207D01*
X169455553Y-83953207D02*
X169412696Y-83996064D01*
X169412696Y-83996064D02*
X169369839Y-83996064D01*
X169369839Y-83996064D02*
X169284124Y-83953207D01*
X169284124Y-83953207D02*
X169241267Y-83867493D01*
X169241267Y-83867493D02*
X169241267Y-83653207D01*
X169241267Y-83653207D02*
X169326982Y-83524636D01*
X169326982Y-83524636D02*
X169455553Y-83438921D01*
X169455553Y-83438921D02*
X169626982Y-83396064D01*
X169626982Y-83396064D02*
X169798410Y-83438921D01*
X169798410Y-83438921D02*
X169926982Y-83524636D01*
X169926982Y-83524636D02*
X170012696Y-83653207D01*
X170012696Y-83653207D02*
X170055553Y-83824636D01*
X170055553Y-83824636D02*
X170012696Y-83996064D01*
X170012696Y-83996064D02*
X169926982Y-84124636D01*
X169926982Y-84124636D02*
X169798410Y-84210350D01*
X169798410Y-84210350D02*
X169626982Y-84253207D01*
X169626982Y-84253207D02*
X169455553Y-84210350D01*
X169455553Y-84210350D02*
X169326982Y-84124636D01*
X168212696Y-84081779D02*
X168126982Y-84124636D01*
X168126982Y-84124636D02*
X167955553Y-84124636D01*
X167955553Y-84124636D02*
X167869839Y-84081779D01*
X167869839Y-84081779D02*
X167826982Y-83996064D01*
X167826982Y-83996064D02*
X167826982Y-83953207D01*
X167826982Y-83953207D02*
X167869839Y-83867493D01*
X167869839Y-83867493D02*
X167955553Y-83824636D01*
X167955553Y-83824636D02*
X168084125Y-83824636D01*
X168084125Y-83824636D02*
X168169839Y-83781779D01*
X168169839Y-83781779D02*
X168212696Y-83696064D01*
X168212696Y-83696064D02*
X168212696Y-83653207D01*
X168212696Y-83653207D02*
X168169839Y-83567493D01*
X168169839Y-83567493D02*
X168084125Y-83524636D01*
X168084125Y-83524636D02*
X167955553Y-83524636D01*
X167955553Y-83524636D02*
X167869839Y-83567493D01*
X167441268Y-84124636D02*
X167441268Y-83224636D01*
X167055554Y-84124636D02*
X167055554Y-83653207D01*
X167055554Y-83653207D02*
X167098411Y-83567493D01*
X167098411Y-83567493D02*
X167184125Y-83524636D01*
X167184125Y-83524636D02*
X167312696Y-83524636D01*
X167312696Y-83524636D02*
X167398411Y-83567493D01*
X167398411Y-83567493D02*
X167441268Y-83610350D01*
X166284125Y-84081779D02*
X166369839Y-84124636D01*
X166369839Y-84124636D02*
X166541268Y-84124636D01*
X166541268Y-84124636D02*
X166626982Y-84081779D01*
X166626982Y-84081779D02*
X166669839Y-83996064D01*
X166669839Y-83996064D02*
X166669839Y-83653207D01*
X166669839Y-83653207D02*
X166626982Y-83567493D01*
X166626982Y-83567493D02*
X166541268Y-83524636D01*
X166541268Y-83524636D02*
X166369839Y-83524636D01*
X166369839Y-83524636D02*
X166284125Y-83567493D01*
X166284125Y-83567493D02*
X166241268Y-83653207D01*
X166241268Y-83653207D02*
X166241268Y-83738921D01*
X166241268Y-83738921D02*
X166669839Y-83824636D01*
X165512696Y-84081779D02*
X165598410Y-84124636D01*
X165598410Y-84124636D02*
X165769839Y-84124636D01*
X165769839Y-84124636D02*
X165855553Y-84081779D01*
X165855553Y-84081779D02*
X165898410Y-83996064D01*
X165898410Y-83996064D02*
X165898410Y-83653207D01*
X165898410Y-83653207D02*
X165855553Y-83567493D01*
X165855553Y-83567493D02*
X165769839Y-83524636D01*
X165769839Y-83524636D02*
X165598410Y-83524636D01*
X165598410Y-83524636D02*
X165512696Y-83567493D01*
X165512696Y-83567493D02*
X165469839Y-83653207D01*
X165469839Y-83653207D02*
X165469839Y-83738921D01*
X165469839Y-83738921D02*
X165898410Y-83824636D01*
X165084124Y-83524636D02*
X165084124Y-84424636D01*
X165084124Y-83567493D02*
X164998410Y-83524636D01*
X164998410Y-83524636D02*
X164826981Y-83524636D01*
X164826981Y-83524636D02*
X164741267Y-83567493D01*
X164741267Y-83567493D02*
X164698410Y-83610350D01*
X164698410Y-83610350D02*
X164655552Y-83696064D01*
X164655552Y-83696064D02*
X164655552Y-83953207D01*
X164655552Y-83953207D02*
X164698410Y-84038921D01*
X164698410Y-84038921D02*
X164741267Y-84081779D01*
X164741267Y-84081779D02*
X164826981Y-84124636D01*
X164826981Y-84124636D02*
X164998410Y-84124636D01*
X164998410Y-84124636D02*
X165084124Y-84081779D01*
X164355552Y-83524636D02*
X164141266Y-84124636D01*
X163926981Y-83524636D02*
X164141266Y-84124636D01*
X164141266Y-84124636D02*
X164226981Y-84338921D01*
X164226981Y-84338921D02*
X164269838Y-84381779D01*
X164269838Y-84381779D02*
X164355552Y-84424636D01*
X163584124Y-84038921D02*
X163541267Y-84081779D01*
X163541267Y-84081779D02*
X163584124Y-84124636D01*
X163584124Y-84124636D02*
X163626981Y-84081779D01*
X163626981Y-84081779D02*
X163584124Y-84038921D01*
X163584124Y-84038921D02*
X163584124Y-84124636D01*
X163284124Y-83524636D02*
X162941267Y-83524636D01*
X163155553Y-83224636D02*
X163155553Y-83996064D01*
X163155553Y-83996064D02*
X163112696Y-84081779D01*
X163112696Y-84081779D02*
X163026981Y-84124636D01*
X163026981Y-84124636D02*
X162941267Y-84124636D01*
X162512695Y-84124636D02*
X162598410Y-84081779D01*
X162598410Y-84081779D02*
X162641267Y-84038921D01*
X162641267Y-84038921D02*
X162684124Y-83953207D01*
X162684124Y-83953207D02*
X162684124Y-83696064D01*
X162684124Y-83696064D02*
X162641267Y-83610350D01*
X162641267Y-83610350D02*
X162598410Y-83567493D01*
X162598410Y-83567493D02*
X162512695Y-83524636D01*
X162512695Y-83524636D02*
X162384124Y-83524636D01*
X162384124Y-83524636D02*
X162298410Y-83567493D01*
X162298410Y-83567493D02*
X162255553Y-83610350D01*
X162255553Y-83610350D02*
X162212695Y-83696064D01*
X162212695Y-83696064D02*
X162212695Y-83953207D01*
X162212695Y-83953207D02*
X162255553Y-84038921D01*
X162255553Y-84038921D02*
X162298410Y-84081779D01*
X162298410Y-84081779D02*
X162384124Y-84124636D01*
X162384124Y-84124636D02*
X162512695Y-84124636D01*
X161912695Y-83524636D02*
X161741267Y-84124636D01*
X161741267Y-84124636D02*
X161569838Y-83696064D01*
X161569838Y-83696064D02*
X161398409Y-84124636D01*
X161398409Y-84124636D02*
X161226981Y-83524636D01*
X160884124Y-83524636D02*
X160884124Y-84124636D01*
X160884124Y-83610350D02*
X160841267Y-83567493D01*
X160841267Y-83567493D02*
X160755552Y-83524636D01*
X160755552Y-83524636D02*
X160626981Y-83524636D01*
X160626981Y-83524636D02*
X160541267Y-83567493D01*
X160541267Y-83567493D02*
X160498410Y-83653207D01*
X160498410Y-83653207D02*
X160498410Y-84124636D01*
M02*
